<svg version="1.1" xmlns="http://www.w3.org/2000/svg" x="0" y="0" width="1100" height="1100" viewBox="0 0 1100 1100" xml:space="preserve"><path fill="#BCBCBC" d="M142.467 70.581c6.782 2.46 13.58 4.778 19.921 8.312.04.022.058.055.096.079 3.909.766 7.901 1.257 11.946 1.543 4.919-2.939 9.3-7.012 11.719-11.869.441-.885 1.249-1.117 2.01-.956l3.417-2.776c.462-.474 1.006-.633 1.526-.587v-21.84c0-14.989-12.151-27.14-27.14-27.14s-27.14 12.151-27.14 27.14v25.707c1.201.819 2.414 1.621 3.645 2.387z"/><path fill="#BCBCBC" d="M172.422 18.32v-7.706c-4.318 0-7.828 3.425-7.982 7.706h7.982z"/><path fill="#BCBCBC" d="M160.875 18.32v-6.756c3.786 0 6.863 3.003 6.998 6.756h-6.998z"/><path fill="#A3A3A3" d="M157.123 35.52a4.964 4.964 0 0 0-9.928 0M186.69 35.52a4.964 4.964 0 0 0-9.928 0"/><path fill="#F0F0F0" d="M157.966 41.528l8.8-8.8 8.8 8.8-8.8 8.8z"/><path fill="#BCBCBC" d="M121.811 43.998c0 9.995 8.103 18.097 18.097 18.097V43.998h-18.097zM208.277 43.998c0 9.995-8.103 18.097-18.097 18.097V43.998h18.097z"/><path fill="#D8D8D8" d="M175.567 41.527l-8.957 2.593-8.643-2.593 8.8 8.8z"/><path fill="#BCBCBC" d="M136.222 58.409l.838 8.714 4.524 9.719 15.081 6.033 24.465-2.011 16.087-11.06-1.341-7.708-1.005-3.687s-17.762-3.184-18.768-3.184c-1.005 0-25.135-4.524-25.135-4.524l-14.746 7.708z"/><path fill="#D8D8D8" d="M198.229 58.366v9.869c0 17.92-14.527 32.446-32.446 32.446-17.92 0-32.446-14.527-32.446-32.446v-9.869l13.158 10.616 19.71-10.836 19.321 10.991 12.703-10.771z"/><path fill="#D3D3D3" d="M165.296 88.237c-12.945 0-24.408-6.222-31.658-15.807 2.062 15.933 15.65 28.251 32.145 28.251 17.018 0 30.95-13.109 32.312-29.776-7.154 10.461-19.171 17.332-32.799 17.332z"/><path fill="#BCBCBC" d="M316.7 73.09h-82.209c-2.83 0-2.725 2.154-2.725 4.982 0 2.84 2.294 4.984 5.129 4.984h77.22c2.83 0 5.128-2.144 5.128-4.984-.001-2.828.287-4.982-2.543-4.982z"/><path fill="#A3A3A3" d="M323.113 65.99a7.078 7.078 0 0 1-7.078 7.078h-80.591a7.078 7.078 0 0 1 0-14.156h80.591a7.079 7.079 0 0 1 7.078 7.078z"/><path fill="#F0F0F0" d="M246.237 76.159a5.004 5.004 0 1 0 10.008 0V55.667a5.004 5.004 0 1 0-10.008 0v20.492z"/><path fill="#969696" d="M256.283 71.052a5.004 5.004 0 1 0 10.008 0V50.559a5.004 5.004 0 1 0-10.008 0v20.493z"/><path fill="#BCBCBC" d="M231.981 53.973c0-15.808 12.815-28.623 28.623-28.623h29.824c15.808 0 28.623 12.815 28.623 28.623"/><ellipse fill="#F0F0F0" cx="260.524" cy="31.565" rx="3.555" ry="1.546"/><ellipse fill="#F0F0F0" cx="290.406" cy="31.565" rx="3.555" ry="1.546"/><ellipse fill="#F0F0F0" cx="275.568" cy="37.954" rx="3.555" ry="1.546"/><path fill="#969696" d="M322.922 56.417c0 1.391-1.083 2.519-2.418 2.519h-89.478c-1.336 0-2.418-1.128-2.418-2.519 0-1.391 1.083-2.519 2.418-2.519h89.478c1.335 0 2.418 1.128 2.418 2.519z"/><path fill="#BCBCBC" d="M392.131 61.03v-5.531a6.978 6.978 0 1 0-13.956 0v5.531h-22.791v6.912h11.271c6.679 2.122 11.52 8.368 11.52 15.75v8.166a6.978 6.978 0 1 0 13.956 0V81.759c.761-6.522 5.311-11.884 11.397-13.817h10.767V61.03h-22.164zm-7.155 32.763a2.833 2.833 0 1 1 0-5.667 2.833 2.833 0 0 1 0 5.667z"/><path fill="#A3A3A3" d="M413.586 50.106h-57.22l-4.338-37.891h65.896z"/><path fill="#D8D8D8" d="M354.039 47.169h61.602V61.71h-61.602zM359.994 12.343v14.502a3.14 3.14 0 1 0 6.282 0V18.26c.026.102.046.167.055.165a2.33 2.33 0 1 1 4.66 0l.014-.091v18.879a4.421 4.421 0 0 0 8.842 0V19.65a3.334 3.334 0 0 1 3.33-3.245 3.328 3.328 0 0 1 3.189 2.4v12.264a4.421 4.421 0 0 0 8.842 0V12.343h-35.214z"/><g fill="#AFAFAF"><path d="M496.457 53.223a3.778 3.778 0 0 0-5.28.821l-10.349 14.162-14.365-10.498a3.778 3.778 0 1 0-4.459 6.101l17.15 12.533c.274.2.569.342.87.459a3.773 3.773 0 0 0 4.722-1.149l12.533-17.15a3.777 3.777 0 0 0-.822-5.279zM504.215 71.911a3.78 3.78 0 0 0-3.779 3.779v21.242a3.78 3.78 0 0 0 7.558 0V75.69a3.78 3.78 0 0 0-3.779-3.779z"/><path d="M531.005 49.355a3.382 3.382 0 0 0-4.741.63l-3.322 5.017-13.596-9.85a4.155 4.155 0 0 0-3.013-.748 3.758 3.758 0 0 0-.984-.824l-18.486-10.462a3.732 3.732 0 0 0-1.761-.472c-.102-.009-.204-.006-.306-.005-.041.002-.083.001-.124.005a3.36 3.36 0 0 0-2.485 1.245l-.044.046c-.005.006-.011.01-.015.016l-.056.085c-.129.16-.254.323-.359.507-.019.033-.027.069-.045.102l-5.337 8.06a3.381 3.381 0 1 0 5.37 4.11l3.823-5.773 16.102 9.113a3.736 3.736 0 0 0 1.662.47c.284.491.668.934 1.157 1.289l15.869 11.497a4.162 4.162 0 0 0 3.12.739 3.356 3.356 0 0 0 2.403-1.303l.055-.082c.084-.096.178-.18.255-.286a4.15 4.15 0 0 0 .431-.75l5.056-7.636a3.38 3.38 0 0 0-.629-4.74z"/><path d="M511.257 45.433l3.425-4.941a13.285 13.285 0 0 0 9.635-.747c-2.671-2.237-3.259-6.163-1.224-9.072l6.503 4.55a13.294 13.294 0 0 0 2.317-7.517c0-7.378-5.981-13.36-13.36-13.36s-13.36 5.981-13.36 13.36c0 3.302 1.204 6.319 3.189 8.65l-3.317 4.785 6.192 4.292z"/></g><path fill="#D8D8D8" d="M519.549 101.349a5.479 5.479 0 0 0-5.479-5.479l-13.648-.019v5.471l-.003.027h19.13z"/><path fill="#BCBCBC" d="M495.787 77.723l16.142-23.974a8.882 8.882 0 0 0-2.168-12.372 8.881 8.881 0 0 0-12.372 2.168l-16.255 23.18"/><path fill="#D8D8D8" d="M452.124 71.037a5.478 5.478 0 0 0 7.622-1.391l7.777-11.216-4.5-3.111c-.008-.005-.013-.012-.021-.018l-10.878 15.736zM486.552 58.742l19.592 13.42-6.241 9.11-19.591-13.419z"/><path fill="#A3A3A3" d="M505.952 22.878a7.72 7.72 0 0 1-14.023-6.457M486.54 58.782l-6.206 9.06 8.735 5.983c-4.661-3.551-5.809-10.143-2.469-15.04l-.06-.003z"/><path fill="#A3A3A3" d="M510.597 25.306c2.039-2.545 5.687-3.006 8.31-1.136-.174-1.781.393-3.621 1.757-4.986 1.908-1.908 4.743-2.288 7.046-1.187.298.281.568.59.84.896-3.529-4.424-9.653-6.24-15.195-4.061-6.805 2.676-10.152 10.362-7.476 17.167l.436-.171 4.282-6.522z"/><path fill="#FFF" d="M524.912 27.035a1.917 1.917 0 0 1 3.333 1.893"/><path fill="#BCBCBC" d="M608.998 56.847l-26.919-26.919c2.283.917 4.941.83 7.221-.522a8.183 8.183 0 0 0 2.865-11.214l-10.996 6.52-12.888-4.291a8.184 8.184 0 0 0 5.18 10.35c2.342.78 4.769.412 6.738-.753-10.536 11.337-12.818 27.534-6.842 40.991a37.814 37.814 0 0 0 10.558 14.601l-5.833 2.343c2.538 6.319 9.719 9.383 16.037 6.845a12.34 12.34 0 0 0 3.152-1.849 37.724 37.724 0 0 0 11.076 1.658c20.855 0 37.761-16.906 37.761-37.761h-37.11z"/><path fill="#D3D3D3" d="M601 78.864c2.002 5.112.36 10.766-3.696 14.062 3.495 1.073 7.194 1.682 11.044 1.682 20.793 0 37.652-16.808 37.752-37.577L601 78.864z"/><circle fill="#D8D8D8" cx="626.272" cy="43.702" r="2.231"/><circle fill="#D8D8D8" cx="633.68" cy="34.859" r="3.187"/><circle fill="#D8D8D8" cx="626.033" cy="23.387" r="3.904"/><path fill="#F0F0F0" d="M605.206 71.341c-.035-.088-.031-.182-.076-.268a2.773 2.773 0 0 0-4.934 2.528c.044.086.122.139.174.218l4.836-2.478z"/><path fill="#DBDBDB" d="M750.616 83.936c.011-.005.018-.016.029-.021L725.59 43.544V24.011h.921a1.84 1.84 0 1 0 0-3.684h-19.253a1.842 1.842 0 0 0 0 3.684h.879v19.974L683.475 83.72c.003.002.005.006.009.008a3.849 3.849 0 0 0-.586 2.028 3.876 3.876 0 0 0 3.784 3.872c-.003.007 60.454.01 60.525.01a3.882 3.882 0 0 0 3.882-3.882c0-.661-.181-1.275-.473-1.82z"/><path fill="#AFAEAE" d="M718.073 34.223a3.157 3.157 0 1 1-6.314.002 3.157 3.157 0 0 1 6.314-.002z"/><circle fill="#AFAEAE" cx="722.71" cy="56.415" r="2.638"/><path fill="#AFAEAE" d="M687.368 85.179h59.2l-14.893-23.747s-11.402 10.669-30.864 10.669c-3.265 0-5.156-.254-5.156-.254l-8.287 13.332z"/><path opacity=".7" fill="#EDEDED" d="M715.936 43.766h-3.11l-20.26 41.52h7.942z"/><path fill="#BCBCBC" d="M852.713 68.71h-36.391l6.065-15.163h24.261zM835.718 53.547h-36.391l6.065-15.162h24.261zM816.322 68.71h-36.391l6.065-15.163h24.261z"/><path fill="#D8D8D8" d="M867.876 53.547h-10.93l-6.065-15.163H826.62l-6.065 15.163h-13.331l-6.065 15.163h36.391l-6.065-15.163h12.13L837.55 68.71h36.391z"/><g><path fill="#D3D3D3" d="M851.633 32.942a9.766 9.766 0 0 1 5.267 5.362 9.77 9.77 0 0 1 5.267-5.362 9.766 9.766 0 0 1-5.267-5.362 9.766 9.766 0 0 1-5.267 5.362z"/></g><g><path fill="#D3D3D3" d="M795.189 79.697a9.683 9.683 0 0 1 5.221 5.314 9.683 9.683 0 0 1 5.221-5.314 9.683 9.683 0 0 1-5.221-5.314 9.683 9.683 0 0 1-5.221 5.314z"/></g><circle fill="#D8D8D8" cx="935.766" cy="55.797" r="40.25"/><path fill="#BCBCBC" d="M927.663 16.364c-2.778 2.673-4.67 5.667-4.67 5.667l12.76 5.467 13.212-5.495s-1.55-2.74-4.065-5.404a40.475 40.475 0 0 0-9.133-1.051 40.145 40.145 0 0 0-8.104.816zM971.747 58.705s2.302-2.396 4.16-5.709a40 40 0 0 0-4.653-16.196c-3.424-1.975-6.981-2.971-6.981-2.971l-1.578 13.79 9.052 11.086zM899.434 58.705l9.052-11.085-1.578-13.79s-3.219.905-6.48 2.692a40 40 0 0 0-4.843 17.01c1.794 3.028 3.849 5.173 3.849 5.173zM904.509 73.996s-.434 3.352-.055 7.081a40.4 40.4 0 0 0 13.92 11.024c3.409-.477 6.098-1.493 6.098-1.493l-6.654-12.669-13.309-3.943zM966.655 81.596c.48-3.929.002-7.6.002-7.6l-13.308 3.943-6.654 12.669s2.837 1.075 6.38 1.533a40.411 40.411 0 0 0 13.58-10.545zM927.553 67.822l-4.974-15.133 13.02-9.373 13.019 9.331-4.974 15.175z"/><circle fill="#D8D8D8" cx="1021.944" cy="72.99" r="12.073"/><g><path fill="#A3A3A3" d="M1021.945 81.586c-4.741 0-8.599-3.856-8.599-8.596s3.857-8.596 8.599-8.596c4.739 0 8.596 3.856 8.596 8.596s-3.857 8.596-8.596 8.596zm0-14.862c-3.456 0-6.266 2.81-6.266 6.266s2.809 6.266 6.266 6.266c3.454 0 6.263-2.81 6.263-6.266s-2.809-6.266-6.263-6.266z"/></g><path fill="#A3A3A3" d="M1064.158 70.098h-10.638V59.61h5.519c6.92 0 12.55-5.63 12.55-12.548v-7.188h-6.079v7.188a6.478 6.478 0 0 1-6.471 6.47h-17.116a6.478 6.478 0 0 1-6.471-6.47v-7.188h-6.079v7.188c0 6.919 5.63 12.548 12.55 12.548h5.519v10.489h-19.038v6.079h19.038v10.638c0 9.217 7.499 16.717 16.716 16.717 9.218 0 16.717-7.499 16.717-16.717s-7.5-16.718-16.717-16.718zm0 27.355c-5.865 0-10.638-4.772-10.638-10.638V76.177h10.638c5.866 0 10.638 4.772 10.638 10.638s-4.773 10.638-10.638 10.638z"/><g fill="#D8D8D8"><path d="M1035.452 19.008a6.478 6.478 0 0 1 6.471-6.47V6.46c-6.92 0-12.55 5.63-12.55 12.548v20.865h6.079V19.008zM1059.039 6.46v6.079a6.478 6.478 0 0 1 6.471 6.47v20.865h6.079V19.008c-.001-6.918-5.63-12.548-12.55-12.548z"/></g><path fill="#D8D8D8" d="M71.751 21.119l-7.74 8.534 5.727 4.125-8.707 21.074 3.667-17.868-7.79-5.956L64.873 15.5c-3.212-1.929-6.615-3.044-10.141-3.044-19.419 0-35.162 33.627-35.162 53.048 0 19.419 15.743 33.787 35.162 33.787 19.421 0 35.164-14.367 35.164-33.787 0-13.243-7.326-33.097-18.145-44.385z"/><path opacity=".55" fill="#C6C6C6" d="M54.732 82.817c-14.579 0-27.437-6.668-35.162-17.315v.001c0 19.42 15.743 33.787 35.162 33.787 19.421 0 35.164-14.367 35.164-33.787V65.5c-7.725 10.649-20.584 17.317-35.164 17.317z"/><path fill="#CCC" d="M96.08 191.349v-3.802h-4.483v-3.878h-3.362v-27.202h.047c.576 0 1.042-.467 1.042-1.043 0-.327-.16-.607-.395-.798h5.194l-39.696-21.491-39.696 21.491h6.634a1.023 1.023 0 0 0-.395.798c0 .576.467 1.043 1.042 1.043h.101v27.202h-3.735v3.878h-4.11v3.802h-3.891v3.85h89.795v-3.85H96.08zm-15.792-34.882h.101v27.202H67.875v-27.202h.094c.576 0 1.043-.467 1.043-1.043 0-.327-.16-.607-.395-.798h11.025a1.024 1.024 0 0 0-.396.798 1.04 1.04 0 0 0 1.042 1.043zm-20.959-1.84a1.024 1.024 0 0 0-.396.798c0 .576.467 1.043 1.042 1.043h.055v27.202H48.356v-27.202h.094c.576 0 1.042-.467 1.042-1.043 0-.327-.16-.607-.395-.798h10.232zm-29.371 1.84h.047c.576 0 1.042-.467 1.042-1.043 0-.327-.16-.607-.395-.798h9.157a1.023 1.023 0 0 0-.395.798c0 .576.467 1.043 1.042 1.043h.055v27.202H29.958v-27.202z"/><g opacity=".7" fill="#8C8C8C"><path opacity=".3" d="M79.245 155.425c0 .576.467 1.043 1.043 1.043h.101v9.825h7.845v-9.825h.047c.576 0 1.042-.467 1.042-1.043 0-.305-.147-.561-.356-.75h-9.366c-.209.189-.356.445-.356.75zM29.958 166.293v-9.825h.047c.576 0 1.042-.467 1.042-1.043 0-.305-.147-.561-.356-.75h-9.366a1.01 1.01 0 0 0-.356.75c0 .576.467 1.043 1.042 1.043h.101v9.825h7.846zM67.875 166.293v-9.825h.094c.576 0 1.043-.467 1.043-1.043 0-.305-.147-.561-.356-.75H59.29c-.21.189-.356.446-.356.75 0 .576.467 1.043 1.042 1.043h.055v9.825h7.844zM48.356 166.293v-9.825h.094c.576 0 1.042-.467 1.042-1.043 0-.305-.147-.561-.356-.75H39.77a1.01 1.01 0 0 0-.356.75c0 .576.467 1.043 1.042 1.043h.055v9.825h7.845z"/></g><path fill="#D8D8D8" d="M124.187 127.552h82.496v74.781h-82.496z"/><path fill="#DBDBDB" d="M129.1 132.006h72.67v65.874H129.1z"/><path fill="#D8D8D8" d="M194.654 172.753a47.124 47.124 0 0 0-7.209-1.754l-.389 2.425c2.31.372 4.608.931 6.83 1.662l.768-2.333zM165.261 172.693a47.212 47.212 0 0 0-6.856 2.841l1.118 2.188a44.62 44.62 0 0 1 6.496-2.693l-.758-2.336zM180.054 172.85l-.187-2.456c-2.478 0-4.966.193-7.391.573l.379 2.428a45.392 45.392 0 0 1 7.012-.545h.187z"/><path fill="#A3A3A3" d="M129.1 132.006v9.908h9.069c-.024.204-.062.404-.062.614a5.22 5.22 0 0 0 5.22 5.22h15.353a5.22 5.22 0 0 0 5.22-5.22c0-.21-.038-.41-.062-.614h.369c5.427 0 9.826-4.399 9.826-9.826v-.082H129.1z"/><g><path fill="#BCBCBC" d="M176.593 197.823h-7.369c0-22.123-17.999-40.121-40.124-40.121v-7.369c26.188-.001 47.493 21.304 47.493 47.49z"/></g><path fill="#A3A3A3" d="M178.639 137.615c0 9.401 6.508 17.263 15.259 19.379-.113.693-.214 1.391-.214 2.115 0 5.477 3.336 10.173 8.086 12.173v-39.275h-22.319a19.992 19.992 0 0 0-.812 5.608zM150.134 185.229c.154-.65.256-1.319.256-2.016a8.751 8.751 0 0 0-8.751-8.751h-11.361c-.403 0-.788.066-1.177.119v17.265c.389.053.774.119 1.177.119h4.623a9.031 9.031 0 0 0-.17 1.689c0 1.536.418 2.96 1.093 4.227h19.002c.675-1.267 1.093-2.691 1.093-4.227-.002-3.846-2.406-7.11-5.785-8.425z"/><path opacity=".1" d="M151.346 127.552h28.386v74.781h-28.386z"/><path fill="#D8D8D8" d="M141.624 189.864a47.306 47.306 0 0 0-3.884 6.315l2.188 1.118a44.641 44.641 0 0 1 3.682-5.986l-1.986-1.447zM152.083 179.413a47.763 47.763 0 0 0-5.64 4.817l1.737 1.737a45.108 45.108 0 0 1 5.347-4.567l-1.444-1.987z"/><path fill="#BCBCBC" d="M260.892 131.839c-12.383.152-22.375 10.232-22.375 22.652h76.331v-22.659h-53.956v.007zM292.308 199.364c12.383-.152 22.375-10.232 22.375-22.652h-76.331v22.659h53.956v-.007z"/><path fill="#D8D8D8" d="M237.503 175.721h10.48v25.208h-10.48z"/><path fill="#A3A3A3" d="M254.886 186.528h3.346v12.773h-3.346zM274.474 186.528h3.346v12.773h-3.346zM294.062 199.255a22.462 22.462 0 0 0 3.346-.555v-12.173h-3.346v12.728zM284.268 192.771h3.346v6.529h-3.346zM264.68 192.771h3.346v6.529h-3.346zM260.524 176.961c.066.002.129.012.195.014v-.014h53.964c0-12.419-9.992-22.499-22.375-22.651v-.007h-31.864v.012h-21.907c0 12.265 9.742 22.226 21.907 22.64v.006h.08z"/><path fill="#D8D8D8" d="M305.479 130.263h10.48v25.208h-10.48z"/><path fill="#A3A3A3" d="M293.848 131.722h3.346v12.773h-3.346zM274.26 131.722h3.346v12.773h-3.346zM254.672 132.802v11.693h3.346v-12.418c-1.145.16-2.263.401-3.346.725zM264.466 131.722h3.346v6.529h-3.346zM284.054 131.722h3.346v6.529h-3.346z"/><path fill="#D8D8D8" d="M385.034 129.603c0 7.954-6.448 14.402-14.402 14.402-4.008 0-7.631-1.64-10.242-4.283l-.017.019a14.344 14.344 0 0 1 4.075 10.025c0 7.588-5.872 13.79-13.317 14.347 7.445.557 13.317 6.759 13.317 14.347 0 3.986-1.62 7.592-4.236 10.2l.017.019a14.344 14.344 0 0 1 9.981-4.034c7.954 0 14.402 6.448 14.402 14.402l-.002.033.045.002c-.001-.083-.012-.163-.012-.246 0-7.954 6.448-14.402 14.402-14.402 4.15 0 7.88 1.766 10.508 4.575l.032-.029a14.352 14.352 0 0 1-4.355-10.308c0-7.588 5.872-13.79 13.317-14.347-7.445-.557-13.317-6.759-13.317-14.347 0-4.062 1.688-7.725 4.394-10.343l-.019-.017a14.354 14.354 0 0 1-10.137 4.175c-7.924 0-14.35-6.401-14.397-14.314l-.02-.001-.022.001c-.001.041.005.082.005.124z"/><circle fill="#BCBCBC" cx="385.049" cy="164.289" r="18.456"/><path fill="#D8D8D8" d="M348.916 192.574a44.442 44.442 0 0 1-3.677-5.966l-1.802.922a46.813 46.813 0 0 0 3.841 6.238l1.638-1.194zM391.897 122.058l.31-2.002a47.088 47.088 0 0 0-7.162-.546h-.141l.141 2.025c2.297.001 4.604.177 6.852.523zM338.894 173.64a46.809 46.809 0 0 0 1.72 7.125l1.924-.629a44.84 44.84 0 0 1-1.645-6.815l-1.999.319zM378.099 210.408l-.31 2.002a47.37 47.37 0 0 0 7.255.56h.047l-.047-2.025c-2.325 0-4.659-.181-6.945-.537zM392.396 212.393c2.41-.38 4.808-.956 7.129-1.711l-.629-1.926a44.386 44.386 0 0 1-6.814 1.637l.314 2zM358.813 202.445a44.934 44.934 0 0 1-5.336-4.549l-1.431 1.434a47.025 47.025 0 0 0 5.58 4.755l1.187-1.64zM340.867 159.338l-2.004-.307a47.77 47.77 0 0 0-.551 7.21v.094l2.027-.094c0-2.306.176-4.628.528-6.903zM342.484 152.518a44.358 44.358 0 0 1 2.67-6.483l-1.807-.917a46.496 46.496 0 0 0-2.792 6.781l1.929.619zM377.597 120.102a46.497 46.497 0 0 0-7.122 1.726l.629 1.924a44.698 44.698 0 0 1 6.812-1.651l-.319-1.999zM363.875 207.913a46.554 46.554 0 0 0 6.779 2.799l.624-1.926a44.728 44.728 0 0 1-6.483-2.677l-.92 1.804zM353.353 134.709l-1.436-1.429a46.98 46.98 0 0 0-4.747 5.582l1.638 1.187a45.034 45.034 0 0 1 4.545-5.34zM406.126 124.525a46.47 46.47 0 0 0-6.784-2.786l-.619 1.929a44.42 44.42 0 0 1 6.488 2.664l.915-1.807zM426.695 187.449a46.136 46.136 0 0 0 2.806-6.776l-1.924-.624c-.72 2.22-1.624 4.4-2.684 6.48l1.802.92zM421.12 139.831a44.544 44.544 0 0 1 3.686 5.959l1.802-.927a46.89 46.89 0 0 0-3.855-6.229l-1.633 1.197zM431.175 158.744a47.045 47.045 0 0 0-1.734-7.119l-1.924.631a44.843 44.843 0 0 1 1.659 6.812l1.999-.324zM429.206 173.23l1.999.314c.378-2.399.57-4.857.57-7.305v-.188l-2.027.188c0 2.344-.183 4.695-.542 6.991zM416.669 197.838l1.431 1.431a47.23 47.23 0 0 0 4.761-5.573l-1.638-1.192a45.302 45.302 0 0 1-4.554 5.334zM405.37 206.068l.925 1.802a46.747 46.747 0 0 0 6.239-3.838l-1.192-1.636a44.598 44.598 0 0 1-5.972 3.672zM411.197 129.981a44.957 44.957 0 0 1 5.348 4.538l1.427-1.436a46.835 46.835 0 0 0-5.587-4.745l-1.188 1.643z"/><circle fill="#D8D8D8" cx="360.928" cy="128.082" r="5.063"/><path fill="#A3A3A3" d="M497.74 130.396v5.267a6.315 6.315 0 0 1 6.308 6.308v30.548c0 3.308-2.568 5.998-5.81 6.257v-20.083h-5.267v30.58c-3.064-.428-5.438-3.039-5.438-6.22v-30.548a6.315 6.315 0 0 1 6.308-6.308v-5.267c-6.382 0-11.574 5.192-11.574 11.574v30.548c0 6.084 4.735 11.033 10.705 11.486v16.977h5.267V184.04c6.146-.267 11.077-5.313 11.077-11.524V141.97c-.001-6.382-5.194-11.574-11.576-11.574z"/><path fill="#BCBCBC" d="M508.837 119.012a25.224 25.224 0 0 0-14.336 4.451c-2.266-2.954-5.794-4.89-9.805-4.89-6.848 0-12.4 5.552-12.4 12.4 0 1.207.227 2.35.548 3.453-9.22 2.891-15.91 11.501-15.91 21.675 0 12.545 10.169 22.715 22.715 22.715 8.273 0 15.492-4.438 19.463-11.048a25.264 25.264 0 0 0 9.725 1.94c13.999 0 25.348-11.349 25.348-25.348 0-13.999-11.349-25.348-25.348-25.348z"/><path fill="#D8D8D8" d="M472.028 151.753l-.012-.028-.014.023-.026-.005.012.028c-.863 1.248-.99 3.178-.178 4.999s2.332 3.017 3.837 3.21l.012.028.014-.023.026.005-.012-.028c.863-1.248.99-3.178.178-4.999s-2.332-3.018-3.837-3.21zM495.095 149.446l-.012-.028-.014.023-.026-.005.012.028c-.863 1.248-.99 3.178-.178 4.999s2.332 3.017 3.837 3.21l.012.028.014-.023.026.005-.012-.028c.863-1.248.99-3.178.178-4.999-.812-1.821-2.332-3.017-3.837-3.21zM520.961 152.71l.025-.018c-.008-.003-.017-.005-.025-.009v-.026l-.025.018c-1.393-.602-3.311-.349-4.937.803s-2.503 2.877-2.397 4.391l-.025.018c.008.004.017.005.025.009v.026l.025-.018c1.393.602 3.311.349 4.937-.803 1.626-1.152 2.502-2.878 2.397-4.391zM505.699 126.317l-.02-.023c-.003.008-.004.017-.006.026 0 0-.018.001-.026.003l.02.023c-.461 1.446-.018 3.329 1.29 4.833s3.111 2.205 4.607 1.949l.02.023c.003-.008.004-.017.006-.026.009-.001.018-.001.026-.003l-.02-.023c.461-1.446.018-3.329-1.29-4.833s-3.112-2.204-4.607-1.949zM483.743 137.484l-.012.028.026-.005.014.023.012-.028c1.504-.203 3.015-1.411 3.814-3.237.798-1.826.658-3.756-.214-4.998l.012-.028-.026.005-.014-.022-.012.028c-1.504.203-3.015 1.411-3.814 3.237-.798 1.826-.657 3.755.214 4.997z"/><g><path fill="#D6D6D6" d="M606.201 124.716v-.01h-.038c-.052 0-.102.006-.154.006-.05 0-.098-.006-.15-.006h-.039v.01c-15.548.183-28.101 12.838-28.101 28.43 0 3.446.617 6.901 1.858 10.112 1.202 3.118 2.971 5.929 5.106 8.482 2.096 2.506 4.291 4.958 5.928 7.799 1.577 2.735 2.416 5.262 2.716 8.587h25.364c.3-3.325 1.144-5.852 2.716-8.587 1.637-2.841 3.833-5.293 5.929-7.799 2.139-2.554 3.908-5.364 5.11-8.482 1.239-3.21 1.856-6.666 1.856-10.112 0-15.592-12.555-28.247-28.101-28.43z"/></g><circle fill="#F0F0F0" cx="592.785" cy="142.296" r="5.333"/><path fill="#C9C9C9" d="M621.404 189.221a2.606 2.606 0 0 1-2.606 2.606h-25.54a2.606 2.606 0 0 1 0-5.212h25.54a2.606 2.606 0 0 1 2.606 2.606zM618.916 196.332a2.606 2.606 0 0 1-2.606 2.606h-21.274a2.606 2.606 0 0 1 0-5.212h21.274a2.606 2.606 0 0 1 2.606 2.606zM596.983 200.956c1.37 3.628 4.848 6.222 8.956 6.222s7.586-2.593 8.956-6.222h-17.912z"/><path fill="#D8D8D8" d="M690.669 148.935h53.816v45.007h-53.816z"/><path opacity=".6" fill="#BCBCBC" d="M701.463 170.398a3.357 3.357 0 0 0-3.357 3.357v20.187h6.714v-20.187a3.358 3.358 0 0 0-3.357-3.357zM717.577 170.398a3.357 3.357 0 0 0-3.357 3.357v20.187h6.714v-20.187a3.357 3.357 0 0 0-3.357-3.357zM684.262 147.974h68.231v17.078h-68.231zM733.691 170.398a3.357 3.357 0 0 0-3.357 3.357v20.187h6.714v-20.187a3.357 3.357 0 0 0-3.357-3.357z"/><path fill="#D8D8D8" d="M749.13 137.107v-.024h-64.228v.016c-8.077.172-14.575 6.761-14.575 14.879 0 8.227 6.669 14.896 14.896 14.896 7.956 0 14.436-6.243 14.855-14.095h33.716c.419 7.852 6.899 14.095 14.855 14.095 8.226 0 14.896-6.669 14.896-14.896 0-8.064-6.413-14.615-14.415-14.871z"/><path fill="#FFF" d="M825.215 135.859c-19.066 0-34.698 14.662-36.267 33.325 1.569 18.661 17.201 33.32 36.267 33.32 19.066 0 34.7-14.659 36.267-33.32-1.567-18.663-17.201-33.325-36.267-33.325z"/><circle fill="#BCBCBC" cx="825.215" cy="166.099" r="44.208"/><path fill="#EDEDED" d="M857.489 149.248c9.302 17.825 2.398 39.817-15.424 49.124-17.824 9.304-39.819 2.399-49.125-15.422-9.303-17.825-2.398-39.817 15.424-49.124 17.825-9.304 39.818-2.399 49.125 15.422z"/><path fill="#A3A3A3" d="M815.578 172.381l-4.769-30.37 23.853 19.388z"/><path fill="#BFBFBF" d="M834.658 161.383l4.768 30.37-23.853-19.393z"/><path fill="#EDEDED" d="M828.627 164.738a4.1 4.1 0 1 1-7.108 4.085 4.1 4.1 0 0 1 7.108-4.085z"/><path fill="#BCBCBC" d="M907.135 137.529h46.411v52.133h-46.411z"/><path fill="#BCBCBC" d="M931.87 148.569h46.411v52.133H931.87z"/><path fill="#A3A3A3" d="M953.546 137.529l-21.676 11.04h21.648z"/><path fill="#BCBCBC" d="M898.855 136.609h5.213v65.32h-5.213z"/><circle fill="#BCBCBC" cx="901.402" cy="132.546" r="4.907"/><g><path fill="#ADADAD" d="M1015.624 182.424c4.581-.123 9.15-.08 13.693.386v-11.974c0-9.007 7.326-16.335 16.333-16.335 9.007 0 16.335 7.327 16.335 16.335v11.422c1.07-.01 2.139-.031 3.208-.035a1.852 1.852 0 0 1 1.3-.462c5.019.105 10.023.466 15.032.738.82.03 1.641.072 2.462.101v-11.764c0-21.138-17.198-38.335-38.337-38.335-21.137 0-38.334 17.196-38.334 38.335v10.992c2.769.22 5.538.415 8.308.596z"/></g><g fill="#D8D8D8"><path d="M1007.316 179.711h22v19.125h-22zM1061.985 179.711h22.002v19.125h-22.002z"/></g><g fill="#D8D8D8"><path d="M1007.316 179.711h22v19.125h-22zM1061.985 179.711h22.002v19.125h-22.002z"/></g><path fill="#BCBCBC" d="M60.108 260.504l5.511-13.089h-4.168l-13.608 13.089H28.119v.015c-6.24.161-11.281 12.538-11.281 27.799s5.04 27.638 11.281 27.799v.101h56.144v-55.714H60.108z"/><path fill="#A3A3A3" d="M39.642 289.996l34.208 3.018-.718-6.821z"/><ellipse fill="#D8D8D8" cx="84.21" cy="288.361" rx="11.42" ry="27.857"/><ellipse fill="#BCBCBC" cx="84.21" cy="288.361" rx="7.201" ry="17.566"/><path fill="#A3A3A3" d="M53.353 252.242l.033.05.019-.048c.017-.001.035.002.051.002l-.033-.05c1.276-2.679.917-6.446-1.219-9.708-2.136-3.262-5.445-5.096-8.411-4.998l-.033-.05-.019.048c-.017.001-.035-.002-.051-.002l.033.05c-1.276 2.679-.917 6.446 1.219 9.708s5.445 5.097 8.411 4.998zM18.226 275.028l31.209-.325-29.771-4.663a41.685 41.685 0 0 0-1.438 4.988zM20.702 309.141l25.142-2.483-26.748-1.783a33.014 33.014 0 0 0 1.606 4.266z"/><path fill="#BCBCBC" d="M137.04 252.932h61.965v4.678H137.04zM137.04 270.469h61.965v5.843H137.04zM137.04 288.005h61.965v5.845H137.04z"/><path fill="#A3A3A3" d="M210.965 304.373h-4.943v-61.007c0-2.467-2.212-4.465-4.678-4.465-2.466 0-4.675 1.998-4.675 4.465v61.007H138.21v-61.007c0-2.467-1.626-4.465-4.092-4.465-2.466 0-4.093 1.998-4.093 4.465v61.007h-5.296c-2.389 0-4.325 1.704-4.325 4.09 0 2.389 1.937 4.095 4.325 4.095h86.235c2.389 0 4.326-1.706 4.326-4.095.001-2.386-1.937-4.09-4.325-4.09z"/><path fill="#8E8E8E" d="M147.563 258.802a3.481 3.481 0 0 1-3.481 3.482h-.053a3.482 3.482 0 0 1-3.481-3.482v-5.898a3.484 3.484 0 0 1 3.481-3.482h.053a3.482 3.482 0 0 1 3.481 3.482v5.898zM156.916 258.802a3.48 3.48 0 0 1-3.48 3.482h-.053a3.48 3.48 0 0 1-3.481-3.482v-5.898a3.482 3.482 0 0 1 3.481-3.482h.053a3.483 3.483 0 0 1 3.48 3.482v5.898zM194.328 258.802a3.48 3.48 0 0 1-3.48 3.482h-.053a3.48 3.48 0 0 1-3.481-3.482v-5.898a3.482 3.482 0 0 1 3.481-3.482h.053a3.483 3.483 0 0 1 3.48 3.482v5.898zM166.269 258.802a3.48 3.48 0 0 1-3.48 3.482h-.053a3.481 3.481 0 0 1-3.482-3.482v-5.898a3.483 3.483 0 0 1 3.482-3.482h.053a3.482 3.482 0 0 1 3.48 3.482v5.898zM194.328 276.343a3.479 3.479 0 0 1-3.48 3.478h-.053a3.478 3.478 0 0 1-3.481-3.478v-5.903a3.482 3.482 0 0 1 3.481-3.48h.053a3.483 3.483 0 0 1 3.48 3.48v5.903zM147.563 276.343a3.48 3.48 0 0 1-3.481 3.478h-.053a3.48 3.48 0 0 1-3.481-3.478v-5.903c0-1.919 1.56-3.48 3.481-3.48h.053a3.482 3.482 0 0 1 3.481 3.48v5.903zM156.916 276.343a3.479 3.479 0 0 1-3.48 3.478h-.053a3.478 3.478 0 0 1-3.481-3.478v-5.903a3.482 3.482 0 0 1 3.481-3.48h.053a3.483 3.483 0 0 1 3.48 3.48v5.903zM184.976 276.343a3.479 3.479 0 0 1-3.48 3.478h-.053a3.48 3.48 0 0 1-3.482-3.478v-5.903c0-1.919 1.56-3.48 3.482-3.48h.053a3.483 3.483 0 0 1 3.48 3.48v5.903zM194.328 293.878a3.482 3.482 0 0 1-3.48 3.482h-.053a3.482 3.482 0 0 1-3.481-3.482v-5.901a3.48 3.48 0 0 1 3.481-3.48h.053a3.48 3.48 0 0 1 3.48 3.48v5.901zM184.976 293.878a3.482 3.482 0 0 1-3.48 3.482h-.053a3.483 3.483 0 0 1-3.482-3.482v-5.901c0-1.922 1.56-3.48 3.482-3.48h.053a3.48 3.48 0 0 1 3.48 3.48v5.901zM175.623 293.878a3.482 3.482 0 0 1-3.481 3.482h-.053a3.483 3.483 0 0 1-3.48-3.482v-5.901a3.48 3.48 0 0 1 3.48-3.48h.053a3.48 3.48 0 0 1 3.481 3.48v5.901zM166.269 293.878a3.482 3.482 0 0 1-3.48 3.482h-.053a3.483 3.483 0 0 1-3.482-3.482v-5.901a3.481 3.481 0 0 1 3.482-3.48h.053a3.48 3.48 0 0 1 3.48 3.48v5.901z"/><path fill="#BCBCBC" d="M293.945 306.376c-.741.175-1.428.623-1.887 1.495-.318.605-.529 1.225-.71 1.851a2.454 2.454 0 0 0-.093.11c-.516.187 6.279 2.918 5.894 3.334-1.931.051-1.4-.848-.616 1.505l.073.218h-58.302c.002-.009-.002-.017 0-.026-.087.002-.168.026-.256.026-5.355 0-9.697-4.342-9.697-9.697v-2.976l-.033-.002v-4.564h68.416v6.858c-1.142.014-2.261.584-2.789 1.868z"/><path fill="#D8D8D8" d="M285.751 297.65v7.542c0 5.355 4.341 9.697 9.697 9.697 5.355 0 9.697-4.341 9.697-9.697v-7.542"/><path fill="#D8D8D8" d="M305.178 249.739v-.101 48.013h-59.123v-50.06c.023-.002.044-.012.067-.014v-2.503l.033-.002v-2.976c0-5.355 4.342-9.697 9.697-9.697.088 0 .169.023.256.026-.002-.009.002-.017 0-.026h48.652l-.022.067h.44v.034h9.745l-2.413.005c5.333.026 9.649 4.353 9.649 9.692v7.542h-16.981z"/><path fill="#BCBCBC" d="M305.272 232.5h7.239v.005c5.333.026 9.649 4.353 9.649 9.692v7.542h-16.981M296.888 292.016l-7.193-10.153.161-.227-.646-.458-2.316-3.269-1.15.814-1.148-.814-2.317 3.269-.646.458.161.227-7.193 10.153 7.97-.099 3.173-4.479 3.174 4.479z"/><path fill="#D8D8D8" d="M305.318 238.404a5.953 5.953 0 0 1 5.859-5.949h-9.247l3.388 5.949z"/><circle fill="#BCBCBC" cx="285.786" cy="276.654" r="9.591"/><path fill="#BCBCBC" d="M295.443 247.887c0 .833-.675 1.508-1.508 1.508h-38.899a1.508 1.508 0 1 1 0-3.016h38.899a1.51 1.51 0 0 1 1.508 1.508zM288.206 259.949c0 .833-.675 1.508-1.508 1.508h-31.662a1.508 1.508 0 1 1 0-3.016h31.662c.833 0 1.508.675 1.508 1.508zM266.494 272.011c0 .833-.675 1.508-1.508 1.508h-9.951a1.508 1.508 0 1 1 0-3.016h9.951c.833 0 1.508.675 1.508 1.508z"/><path fill="#D8D8D8" d="M422.663 267.836c0-20.487-16.608-37.095-37.095-37.095s-37.095 16.608-37.095 37.095c0 17.641 12.326 32.376 28.827 36.138v12.817c8.077 0 14.847-5.472 16.876-12.905 16.328-3.887 28.487-18.532 28.487-36.05z"/><g><g><path fill="#BCBCBC" d="M387.432 260.988c0-7.931-6.453-14.385-14.385-14.385v9.808a4.582 4.582 0 0 1 4.577 4.577 4.582 4.582 0 0 1-4.577 4.577v9.808l.007-.001.004.46h9.808v-4.361c2.802-2.626 4.566-6.349 4.566-10.483z"/></g><g><circle fill="#BCBCBC" cx="377.992" cy="282.687" r="4.863"/></g><g><circle fill="#BCBCBC" cx="398.543" cy="282.687" r="4.863"/></g></g><g><path fill="#BCBCBC" d="M393.597 246.804h9.248v28.835h-9.248z"/></g><path fill="#CCC" d="M514.649 281.8c3.397-.48 6.639-1.607 8.659-3.626 4.066-4.066 4.066-10.658 0-14.724-2.776-2.776-6.718-3.609-10.241-2.595v-4.894c0-12.767-10.349-23.116-23.116-23.116s-23.116 10.349-23.116 23.116v5.489c-3.567-1.096-7.595-.279-10.417 2.543-4.066 4.066-4.066 10.658 0 14.724 2.423 2.423 6.462 3.65 10.467 4.011.497 18.717 15.788 33.747 34.624 33.747 19.15 0 34.674-15.524 34.674-34.674h-21.534zm-14.791-31.047a5.504 5.504 0 0 1 5.504 5.504c0 .235-.041.458-.069.685h-10.87c-.029-.227-.069-.45-.069-.685a5.504 5.504 0 0 1 5.504-5.504zm-19.813 0a5.504 5.504 0 0 1 5.504 5.504c0 .235-.041.458-.069.685h-10.87c-.028-.227-.069-.45-.069-.685a5.504 5.504 0 0 1 5.504-5.504zm16.871 31.139a6.52 6.52 0 1 1-13.04 0v-8.298a6.52 6.52 0 1 1 13.04 0v8.298z"/><path fill="#D8D8D8" d="M632.429 229.557h-27.381v47.917l-23.091 20.252c-5.655 5.655-5.655 14.824 0 20.479 5.655 5.655 14.824 5.655 20.479 0l25.702-22.543c2.672-2.672 4.036-6.131 4.183-9.631h.108v-56.474z"/><path fill="#BCBCBC" d="M620.055 290.243c0 3.594 1.415 6.838 3.679 9.281l4.404-3.862c2.672-2.672 4.036-6.131 4.183-9.631h.108v-9.346c-6.933.672-12.374 6.448-12.374 13.558zM582.241 297.477l-.284.249c-5.655 5.655-5.655 14.824 0 20.479 5.505 5.505 14.315 5.606 19.997.393l-19.713-21.121zM605.048 237.85h27.381v5.002h-27.381zM605.048 247.328h27.381v5.002h-27.381zM737.059 314.07a2.319 2.319 0 0 1-4.022 2.305l-7.208-12.591a2.315 2.315 0 0 1 .862-3.163 2.311 2.311 0 0 1 3.16.86l7.208 12.589zM693.319 313.876a2.317 2.317 0 0 0 4.001 2.336l7.32-12.524a2.318 2.318 0 0 0-.834-3.17 2.317 2.317 0 0 0-3.17.832l-7.317 12.526zM718.859 235.84l-6.58-.029a1.94 1.94 0 1 0-.019 3.88l1.943.009-.031 6.75 2.53.01.032-6.748 2.107.01a1.942 1.942 0 0 0 .018-3.882z"/><path fill="#A3A3A3" d="M751.304 279.65c-.089 19.943-16.325 36.037-36.268 35.946-19.943-.086-36.035-16.327-35.944-36.267.089-19.938 16.325-36.035 36.268-35.944 19.941.086 36.033 16.324 35.944 36.265z"/><path fill="#F0F0F0" d="M745.117 279.623c-.075 16.526-13.531 29.858-30.051 29.786-16.523-.075-29.858-13.529-29.786-30.051.075-16.523 13.531-29.858 30.051-29.783 16.521.07 29.859 13.525 29.786 30.048z"/><g fill="#BCBCBC"><path d="M683.347 235.245c-6.741 4.258-8.754 13.174-4.496 19.914l24.41-15.418c-4.258-6.741-13.174-8.754-19.914-4.496zM747.445 235.858c-6.741-4.258-15.657-2.245-19.915 4.496l24.411 15.418c4.257-6.74 2.244-15.656-4.496-19.914z"/></g><path fill="#A3A3A3" d="M719.714 277.339l14.284 3.119-14.284 3.119zM712.484 276.413l3.656-23.23 3.656 23.23z"/><circle fill="#A3A3A3" cx="715.724" cy="280.043" r="5.857"/><circle fill="#F0F0F0" cx="715.724" cy="280.043" r="2.354"/><path fill="#C1C1C1" d="M796.207 276.097h50.73v39.975h-50.73z"/><path fill="#D8D8D8" d="M866.354 275.526c0 16.085-13.039 29.125-29.125 29.125s-29.125-13.04-29.125-29.125"/><path fill="#D8D8D8" d="M786.975 238.977h31.409v46.257h-31.409z"/><path fill="#C1C1C1" d="M803.022 248.115c0 1.025 1.406 1.856 3.141 1.856h5.025c1.735 0 3.141-.831 3.141-1.856 0-1.025-1.406-1.856-3.141-1.856h-5.025c-1.735 0-3.141.831-3.141 1.856z"/><path fill="#D8D8D8" d="M785.167 234.98h35.026v6.567h-35.026zM865.783 270.386a2.284 2.284 0 0 1-2.284 2.284h-46.257a2.284 2.284 0 1 1 0-4.568h46.257a2.285 2.285 0 0 1 2.284 2.284zM825.522 292.658h23.699v23.414h-23.699z"/><path fill="#B2B2B2" d="M914.875 261.717c0-11.807 9.571-21.378 21.378-21.378s21.378 9.571 21.378 21.378"/><path fill="#D8D8D8" d="M915.033 264.675h41.41v53.241h-41.41z"/><circle fill="#B2B2B2" cx="936.253" cy="236.891" r="4.752"/><path fill="#969696" d="M910.226 260.608h51.392v9.243h-51.392z"/><path fill="#EFEFEF" d="M919.47 290.186h32.166v23.293H919.47z"/><path fill="#B2B2B2" d="M1083.677 256.145l.059-.087-3.169-2.149c-9.425-6.387-22.117-9.905-35.743-9.905-13.838 0-26.669 3.611-36.128 10.169l-3.146 2.181.051.073c-1.542 1.224-2.618 2.877-3.189 4.692h-.253v.934a9.518 9.518 0 0 0 0 3.841v32.087c0 4.691 3.817 8.507 8.507 8.507h4.641v.092h59.339v-16.59h-.161l-13.238-26.297h-32.541l-13.238 26.297h-.161v14.608h-4.641a6.622 6.622 0 0 1-6.615-6.617v-27.337l1.168 2.495 17.497-8.193-2.374-5.069c-.459-.98-1.09-1.814-1.8-2.554a51.504 51.504 0 0 1 7.54-2.934c1.225 5.034 5.74 8.796 11.145 8.796h15.026c5.421 0 9.949-3.782 11.158-8.839a51.3 51.3 0 0 1 8.111 3.187c-.722.747-1.362 1.591-1.827 2.584l-2.373 5.069 17.497 8.193 2.373-5.069c2.07-4.423.471-9.583-3.515-12.165zm-31.424 1.457h-15.026c-2.811 0-5.16-1.974-5.76-4.605a66.822 66.822 0 0 1 13.357-1.337c4.521 0 8.972.453 13.198 1.308-.589 2.647-2.948 4.634-5.769 4.634z"/><path fill="#D8D8D8" d="M1033.891 295.892h20.976v5.344h-20.976z"/><circle fill="#D8D8D8" cx="1044.858" cy="272.986" r="18.902"/><circle fill="#F0F0F0" cx="1044.858" cy="272.986" r="6.008"/><circle fill="#F0F0F0" cx="1044.858" cy="260.325" r="3.171"/><circle fill="#F0F0F0" cx="1044.858" cy="285.287" r="3.171"/><circle fill="#F0F0F0" cx="1032.377" cy="272.806" r="3.171"/><circle fill="#F0F0F0" cx="1057.339" cy="272.806" r="3.171"/><circle fill="#F0F0F0" cx="1035.504" cy="263.452" r="3.171"/><circle fill="#F0F0F0" cx="1054.212" cy="282.16" r="3.171"/><circle fill="#F0F0F0" cx="1035.504" cy="282.16" r="3.171"/><circle fill="#F0F0F0" cx="1054.212" cy="263.452" r="3.171"/><path fill="#A3A3A3" d="M29.526 394.346l38.081-38.081 24.85 24.85-38.081 38.08z"/><path fill="#BCBCBC" d="M85.037 394.671l-20.493-20.493a6.563 6.563 0 0 0-.881-.719l-3.533-3.533a7.58 7.58 0 0 0 .582-2.911 7.607 7.607 0 0 0-7.607-7.607 7.58 7.58 0 0 0-2.911.582l-3.804-3.804-27.512 27.512 17.911 17.911 20.493 20.493a6.619 6.619 0 0 0 9.359 0 6.612 6.612 0 0 0 .792-8.389c2.589 1.892 6.23 1.691 8.567-.647 2.183-2.183 2.499-5.502.995-8.041 2.539 1.504 5.858 1.188 8.041-.995a6.618 6.618 0 0 0 .001-9.359z"/><path fill="#A3A3A3" d="M40.232 392.251a6.162 6.162 0 0 1 0 8.714l-3.227 3.227a6.162 6.162 0 0 1-8.713-8.714l3.227-3.227a6.16 6.16 0 0 1 8.713 0zM67.341 365.142a6.162 6.162 0 0 1 0 8.714l-3.227 3.227a6.162 6.162 0 0 1-8.713-8.714l3.227-3.227a6.161 6.161 0 0 1 8.713 0z"/><path fill="#A3A3A3" d="M48.569 400.588a6.162 6.162 0 0 1 0 8.714l-3.227 3.227a6.162 6.162 0 0 1-8.713-8.714l3.227-3.227a6.16 6.16 0 0 1 8.713 0z"/><path fill="#A3A3A3" d="M56.745 408.763a6.162 6.162 0 0 1 0 8.714l-3.227 3.227a6.161 6.161 0 0 1-8.713-8.713l3.227-3.227a6.16 6.16 0 0 1 8.713-.001z"/><path fill="#D8D8D8" d="M8.454 375.575L38.2 345.829l9.467 9.467-29.746 29.746zM75.71 345.88l27.318 27.317-9.467 9.467-27.317-27.317z"/><circle fill="#A0A0A0" cx="94.486" cy="374.165" r="2.434"/><circle fill="#A0A0A0" cx="19.18" cy="374.317" r="2.434"/><path fill="#BCBCBC" d="M148.075 389.248c-12.118 0-21.941 9.823-21.941 21.94h21.941v-21.94z"/><path fill="#CCC" d="M153.211 401.926v15.349c.01 6.715 8.777 12.247 12.083 14.043 2.939-1.265 12.083-7.369 12.083-14.043v-15.349h-24.166zm18.085 12.537c0 3.315-4.542 6.347-6.002 6.976-1.643-.892-5.998-3.64-6.002-6.976v-7.625h12.005v7.625z"/><path fill="#BCBCBC" d="M182.214 389.3c12.118 0 21.941 9.823 21.941 21.94h-21.941V389.3z"/><path fill="#D8D8D8" d="M142.726 411.24v-43.439c0-12.407 17-23.755 22.465-26.108 6.147 3.339 22.446 13.622 22.465 26.108v43.439"/><circle fill="#BCBCBC" cx="165.376" cy="371.087" r="8.767"/><path fill="#BCBCBC" d="M150.568 352.319h29.163c-5.056-5.044-11.248-8.837-14.541-10.625-2.985 1.285-9.404 5.265-14.622 10.625zM163.379 391.059h4.036v20.284h-4.036z"/><g><path fill="#BCBCBC" d="M275.2 423.727a3.245 3.245 0 0 1-2.055-.74c-19.554-15.264-28.88-23.531-34.41-30.489-6.208-7.813-7.455-13.984-7.472-21.961a3.656 3.656 0 0 1-.007-.234c0-13.396 10.898-24.296 24.294-24.296 7.837 0 15.143 3.863 19.656 10.034 4.512-6.171 11.822-10.034 19.657-10.034 13.396 0 24.297 10.9 24.297 24.296 0 .076-.002.152-.009.231-.016 7.975-1.266 14.148-7.48 21.964-5.528 6.96-14.867 15.23-34.439 30.508a3.23 3.23 0 0 1-.799.477c-.389.16-.809.244-1.233.244z"/></g><path fill="#A3A3A3" d="M250.933 374.459a6.92 6.92 0 1 1 13.842 0M286.164 374.459a6.92 6.92 0 1 1 13.842 0"/><path fill="#8C8C8C" d="M291.827 385.784c0 8.687-7.042 15.729-15.729 15.729s-15.729-7.042-15.729-15.729"/><path fill="#B2B2B2" d="M286.648 397.426c-2.789-2.535-6.482-4.092-10.55-4.092-4.067 0-7.76 1.557-10.55 4.092 2.791 2.531 6.484 4.087 10.55 4.087s7.759-1.556 10.55-4.087z"/><path fill="#D8D8D8" d="M368.812 351.386h32.078v73.728h-32.078z"/><path fill="#BCBCBC" d="M400.927 344.401l-11.576 4.497a5.158 5.158 0 0 0-4.37-2.428c-2.053 0-3.811 1.205-4.647 2.938l-11.558-4.49v12.72l11.309-4.394c.677 2.069 2.6 3.574 4.896 3.574 2.432 0 4.458-1.684 5.011-3.946l10.935 4.248v-12.719z"/><circle fill="#BCBCBC" cx="385.239" cy="366.908" r="2.49"/><circle fill="#BCBCBC" cx="385.239" cy="387.603" r="2.49"/><circle fill="#BCBCBC" cx="385.239" cy="408.299" r="2.49"/><path fill="#BCBCBC" d="M352.206 369.57l4.84 4.84-5.322 5.322 17.042 45.404.068-67.606zM413.606 374.41l4.732-4.732-17.49-12.665.067 67.605 17.166-45.733z"/><path fill="#D8D8D8" d="M513.359 387.072h14.623v5.055h-14.623z"/><path fill="#BCBCBC" d="M529.697 420.623v-18.554h-1.014c-7.666 0-13.88-6.214-13.88-13.88h14.894v-5.991h7.853v-3.538c0-16.292-13.208-29.5-29.5-29.5s-29.5 13.208-29.5 29.5v41.467"/><path fill="#EDEDED" d="M487.362 387.072h14.623v5.055h-14.623z"/><path fill="#D8D8D8" d="M503.7 420.623v-18.554h-1.014c-7.666 0-13.88-6.214-13.88-13.88H503.7v-5.991h7.853v-3.538c0-16.292-13.208-29.5-29.5-29.5s-29.5 13.208-29.5 29.5v41.467"/><path fill="#A3A3A3" d="M489.348 374.976a5.416 5.416 0 0 1 10.832 0M516.789 374.976a5.416 5.416 0 0 1 10.832 0"/><path fill="#BCBCBC" d="M622.046 381.28a16.496 16.496 0 0 0-3.158-6.592l12.967-.499v-1.188l-15.912-1.201a16.475 16.475 0 0 0-8.645-3.345l-.567-14.743h-1.188l-1.113 14.746a16.477 16.477 0 0 0-8.635 3.378l-15.435 1.165v1.188l12.551.483a16.495 16.495 0 0 0-3.166 6.593l-34.047 4.283v2.094h5.887c.174 1.112 1.095 1.978 2.256 1.978s2.082-.866 2.256-1.978h10.077c-1.805 1.422-2.985 3.602-2.985 6.078a7.765 7.765 0 1 0 15.53 0c0-2.476-1.181-4.656-2.985-6.078h3.819c1.284 7.877 8.1 13.895 16.34 13.895s15.056-6.018 16.34-13.895h3.639c-1.805 1.422-2.985 3.602-2.985 6.078a7.765 7.765 0 1 0 15.53 0c0-2.476-1.181-4.656-2.985-6.078h10.53c.174 1.112 1.095 1.978 2.256 1.978s2.082-.866 2.256-1.978h5.499v-2.094l-33.927-4.268z"/><circle fill="#A3A3A3" cx="580.955" cy="393.72" r="5.973"/><circle fill="#848484" cx="580.955" cy="393.72" r="1.902"/><circle fill="#A3A3A3" cx="630.653" cy="393.72" r="5.973"/><circle fill="#848484" cx="630.653" cy="393.72" r="1.902"/><path fill="#A3A3A3" d="M589.555 387.649c1.287 7.873 8.102 13.888 16.339 13.888s15.052-6.015 16.339-13.888h-32.678z"/><g fill="#7C7C7C"><path d="M606.864 383.74h8.643l-1.971-3.943h-6.672zM604.718 379.797h-6.952l-1.971 3.943h8.923z"/></g><path fill="#C6C6C6" d="M754.569 393.642v-11.074c0-21.62-17.527-39.147-39.147-39.147s-39.147 17.527-39.147 39.147v19.422h.033c.24 6.65 5.692 11.971 12.401 11.971 3.482 0 6.625-1.436 8.88-3.744v12.897a4.97 4.97 0 0 0 9.938 0v-4.533h2.766v4.533a4.97 4.97 0 0 0 9.938 0v-4.533h2.766v4.533a4.97 4.97 0 0 0 9.938 0v-13.308c2.275 2.544 5.572 4.155 9.254 4.155 6.861 0 12.424-5.562 12.424-12.424v-7.008c.001-.299-.023-.593-.044-.887zm-60.695 8.76c-5.377 0-9.736-4.359-9.736-9.736 0-5.377 4.359-9.736 9.736-9.736 5.377 0 9.736 4.359 9.736 9.736 0 5.377-4.359 9.736-9.736 9.736zm15.402 4.059l6.196-8.278 6.196 8.278h-12.392zm27.843-4.059c-5.377 0-9.736-4.359-9.736-9.736 0-5.377 4.359-9.736 9.736-9.736 5.377 0 9.736 4.359 9.736 9.736 0 5.377-4.359 9.736-9.736 9.736z"/><path fill="#D8D8D8" d="M857.935 418.11c-5.569 5.585-14.611 5.598-20.196.03l-45.508-45.375c-5.585-5.569-5.598-14.611-.03-20.196 5.569-5.585 14.611-5.598 20.196-.03l45.508 45.375c5.585 5.569 5.599 14.611.03 20.196z"/><path fill="#E8AE82" d="M825.837 364.645l20.056 20-21.68 21.741-20.056-20z"/><path fill="#C18156" d="M811.486 362.218a2.143 2.143 0 0 0 3.033 3.025 2.14 2.14 0 1 0-3.033-3.025zM801.907 371.825a2.143 2.143 0 0 0 3.033 3.025 2.14 2.14 0 1 0-3.033-3.025zM798.858 358.702a2.143 2.143 0 0 0 3.033 3.025 2.14 2.14 0 1 0-3.033-3.025z"/><path fill="#BCBCBC" d="M837.302 407.116a2.143 2.143 0 0 0-3.033-3.025 2.14 2.14 0 1 0 3.033 3.025zM846.881 397.509a2.143 2.143 0 0 0-3.033-3.025 2.14 2.14 0 1 0 3.033 3.025zM849.93 410.632a2.143 2.143 0 0 0-3.033-3.025 2.14 2.14 0 1 0 3.033 3.025z"/><path fill="#D8D8D8" d="M857.935 418.11c-5.569 5.585-14.611 5.598-20.196.03l-45.508-45.375c-5.585-5.569-5.598-14.611-.03-20.196 5.569-5.585 14.611-5.598 20.196-.03l45.508 45.375c5.585 5.569 5.599 14.611.03 20.196z"/><path fill="#E8AE82" d="M825.837 364.645l20.056 20-21.68 21.741-20.056-20z"/><path fill="#D8D8D8" d="M857.839 352.473c5.585 5.569 5.598 14.611.029 20.196l-45.375 45.508c-5.569 5.585-14.611 5.598-20.196.03-5.585-5.569-5.598-14.611-.03-20.196l45.375-45.508c5.57-5.586 14.612-5.599 20.197-.03z"/><path fill="#BCBCBC" d="M811.486 362.218a2.143 2.143 0 0 0 3.033 3.025 2.14 2.14 0 1 0-3.033-3.025z"/><path fill="#C18156" d="M801.947 398.921a2.143 2.143 0 0 0 3.025-3.033 2.14 2.14 0 1 0-3.025 3.033zM811.554 408.501a2.143 2.143 0 0 0 3.025-3.033 2.14 2.14 0 1 0-3.025 3.033zM798.431 411.549a2.143 2.143 0 0 0 3.025-3.033 2.14 2.14 0 1 0-3.025 3.033z"/><path fill="#BCBCBC" d="M801.907 371.825a2.143 2.143 0 0 0 3.033 3.025 2.14 2.14 0 1 0-3.033-3.025zM798.858 358.702a2.143 2.143 0 0 0 3.033 3.025 2.14 2.14 0 1 0-3.033-3.025zM837.302 407.116a2.143 2.143 0 0 0-3.033-3.025 2.14 2.14 0 1 0 3.033 3.025z"/><path fill="#D8D8D8" d="M857.839 352.473c5.585 5.569 5.598 14.611.029 20.196l-45.375 45.508c-5.569 5.585-14.611 5.598-20.196.03-5.585-5.569-5.598-14.611-.03-20.196l45.375-45.508c5.57-5.586 14.612-5.599 20.197-.03z"/><path fill="#BCBCBC" d="M801.947 398.921a2.143 2.143 0 0 0 3.025-3.033 2.14 2.14 0 1 0-3.025 3.033zM811.554 408.501a2.143 2.143 0 0 0 3.025-3.033 2.14 2.14 0 1 0-3.025 3.033zM798.431 411.549a2.143 2.143 0 0 0 3.025-3.033 2.14 2.14 0 1 0-3.025 3.033z"/><path fill="#C18156" d="M846.845 373.106a2.143 2.143 0 0 0-3.025 3.033 2.14 2.14 0 1 0 3.025-3.033zM837.238 363.527a2.143 2.143 0 0 0-3.025 3.033 2.14 2.14 0 1 0 3.025-3.033zM850.361 360.478a2.143 2.143 0 0 0-3.025 3.033 2.14 2.14 0 1 0 3.025-3.033z"/><path fill="#BCBCBC" d="M846.881 397.509a2.143 2.143 0 0 0-3.033-3.025 2.14 2.14 0 1 0 3.033 3.025zM849.93 410.632a2.143 2.143 0 0 0-3.033-3.025 2.14 2.14 0 1 0 3.033 3.025zM805.259 385.453l20-20.056 20.117 20.061-20 20.056zM846.845 373.106a2.143 2.143 0 0 0-3.025 3.033 2.14 2.14 0 1 0 3.025-3.033zM837.238 363.527a2.143 2.143 0 0 0-3.025 3.033 2.14 2.14 0 1 0 3.025-3.033zM850.361 360.478a2.143 2.143 0 0 0-3.025 3.033 2.14 2.14 0 1 0 3.025-3.033z"/><path fill="#AFAFAF" d="M890.599 422.668l44.818-73.25 44.817 73.25z"/><path fill="#BCBCBC" d="M980.234 422.668l-44.817-73.25-3.326 25.843 13.351.857-28.864 46.55z"/><path fill="#CECECE" d="M945.284 376.141l8.173 2.763-18.04-29.486-16.041 26.217.132 9.233z"/><path fill="#D8D8D8" d="M945.182 376.141l8.275 2.763-18.04-29.486-3.326 25.843z"/><path fill="#AFAFAF" d="M943.897 422.687l13.023-19.045v19.011z"/><path fill="#D3D3D3" d="M1086.358 391.274v-10.413l-8.865-2.442c-.831-3.7-2.311-7.177-4.237-10.311l4.386-7.829-7.374-7.362-7.706 4.339c-3.189-2.046-6.749-3.662-10.544-4.556l-2.347-8.485h-10.413l-2.304 8.356c-3.913.849-7.575 2.415-10.857 4.486l-7.421-4.162-7.36 7.371 4.167 7.403c-2.093 3.293-3.569 6.968-4.434 10.904l-8.123 2.288v10.413l8.213 2.309c.889 3.859 2.401 7.462 4.484 10.696l-4.294 7.577 7.353 7.362 7.706-4.348c3.18 1.96 6.704 3.357 10.46 4.185l2.408 8.591h10.413l2.444-8.722a33.67 33.67 0 0 0 10.15-4.235l7.987 4.517 7.365-7.355-4.52-8.012c1.914-3.074 3.454-6.475 4.309-10.101l8.954-2.464zm-42.156 4.64c-5.536 0-10.019-4.486-10.019-10.022a10.017 10.017 0 0 1 10.019-10.019c5.534 0 10.017 4.486 10.017 10.019 0 5.536-4.483 10.022-10.017 10.022z"/><path opacity=".14" fill="#FFF" d="M1074.267 415.203l-22.621-22.621a9.982 9.982 0 0 1-7.444 3.331c-5.536 0-10.019-4.486-10.019-10.022a9.98 9.98 0 0 1 3.329-7.444l-22.187-22.184-4.01 4.013 4.167 7.396c-1.34 2.105-2.424 4.384-3.282 6.772l43.457 43.452c2.324-.831 4.547-1.885 6.609-3.182l7.987 4.504 4.014-4.015zM1075.643 408.357l-2.546-4.515a33.822 33.822 0 0 0 3.193-6.72l-43.312-43.312c-2.426.849-4.744 1.94-6.882 3.288l-3.927-2.211 21.039 21.037c.326-.032.659-.052.994-.052 5.534 0 10.017 4.486 10.017 10.019 0 .335-.016.665-.047.991l21.471 21.475z"/><path fill="#D8D8D8" d="M21.996 475.557h32.916v47.023H21.996z"/><path fill="#BCBCBC" d="M54.8 475.557H21.698l-12.571-7.524h33.102zM67.396 468.033l-12.571 7.524h.087v47.024H87.83v-47.024h.099l12.571-7.524H67.396zm8.816 21.63h-7.26c-1.429 0-2.585-.924-2.585-2.349 0-1.429 1.156-2.353 2.585-2.353h7.26c1.429 0 2.587.925 2.587 2.353 0 1.426-1.159 2.349-2.587 2.349z"/><path fill="#D8D8D8" d="M69.96 513.175h5.645v9.405H69.96z"/><path fill="#BCBCBC" d="M196.9 491.708h-21.865c-4.169-.048-7.534-3.298-7.836-7.402v-10.443c0-8.487-6.88-15.367-15.367-15.367v25.981c-.383 4.021-3.708 7.184-7.819 7.231h-15.892v32.938h17.912c1.041 4.371 4.948 7.631 9.637 7.631h33.876c3.39 0 6.377-1.705 8.169-4.298h-.815v-36.271z"/><g fill="#A3A3A3"><path d="M178.678 505.052h18.448a6.695 6.695 0 0 0 0-13.39h-18.448a6.695 6.695 0 0 0 0 13.39zM197.126 505.259h-18.448a6.695 6.695 0 0 0 0 13.39h18.448a6.695 6.695 0 0 0 0-13.39zM197.126 518.857h-18.448a6.695 6.695 0 0 0 0 13.39h18.448a6.695 6.695 0 0 0 0-13.39z"/></g><path fill="#D8D8D8" d="M126.658 489.865h18.039v35.548h-18.039z"/><path fill="#A3A3A3" d="M264.912 467.918a1.99 1.99 0 1 1 2.816-2.816l14.08 14.08a1.99 1.99 0 1 1-2.816 2.816l-14.08-14.08z"/><path fill="#A3A3A3" d="M284.38 465.297a1.99 1.99 0 1 1 2.816 2.816l-14.08 14.08a1.99 1.99 0 1 1-2.816-2.816l14.08-14.08z"/><circle fill="#A3A3A3" cx="276.045" cy="476.682" r="10.454"/><path fill="#BCBCBC" d="M256.171 496.062c0-10.906 8.841-19.747 19.747-19.747s19.747 8.841 19.747 19.747-11.474 23.616-20.147 29.087c-8.806-5.604-19.347-18.181-19.347-29.087z"/><path fill="#A3A3A3" d="M256.171 496.062c0 3.102.874 6.338 2.297 9.511h34.73c1.522-3.179 2.467-6.417 2.467-9.511 0-2.605-.517-5.086-1.433-7.363h-36.627a19.678 19.678 0 0 0-1.434 7.363z"/><path opacity=".8" fill="#FFF" d="M259.506 510.738c-7.193 7.193-18.855 7.193-26.048 0-7.193-7.193-7.193-18.855 0-26.048 7.193-7.193 23.144-8.008 32.472-5.896 2.112 9.504.769 24.751-6.424 31.944zM292.677 510.738c7.193 7.193 18.855 7.193 26.048 0 7.193-7.193 7.193-18.855 0-26.048-7.193-7.193-23.144-8.008-32.472-5.896-2.112 9.504-.769 24.751 6.424 31.944z"/><path fill="#BCBCBC" d="M424.965 460.092h-21.847c-.477-2.693-2.817-4.742-5.646-4.742s-5.169 2.049-5.646 4.742h-19.069v29.529h7.237c.159.015.312.048.474.048h26.823a4.98 4.98 0 0 0 4.981-4.981c0-2.215-1.455-4.07-3.455-4.718h.897a5.001 5.001 0 0 0 5.001-5.001 4.992 4.992 0 0 0-4.14-4.914h14.39a4.98 4.98 0 1 0 0-9.963z"/><path fill="#FFF" d="M353.813 459.23h20.094v31.325h-20.094z"/><path fill="#A3A3A3" d="M397.442 499.507h-7.237c-.159-.015-.312-.048-.475-.048h-26.823a4.98 4.98 0 0 0-4.981 4.981c0 2.215 1.456 4.07 3.455 4.718h-.897a5.001 5.001 0 0 0-5.001 5.001 4.993 4.993 0 0 0 4.139 4.914h-14.389a4.98 4.98 0 1 0 0 9.962h21.847c.477 2.693 2.817 4.742 5.646 4.742 2.83 0 5.169-2.049 5.646-4.742h19.069v-29.528z"/><path fill="#FFF" d="M396.292 498.559h17.227v31.325h-17.227z"/><path fill="#C1C1C1" d="M534.397 514.322H533.3v-20.027h.016v-23.228l-19.148 17.967-19.149-17.967-19.024 17.821-19.025-17.821v23.228h.013v20.027h-1a1.951 1.951 0 0 0 0 3.902h78.414a1.95 1.95 0 0 0 0-3.902z"/><path opacity=".5" fill="#EDEDED" d="M484.461 480.957l-8.466 7.931-8.308-7.783v33.316h16.774z"/><path opacity=".5" fill="#EDEDED" d="M464.37 514.127h17.702v3.95H464.37z"/><path fill="#BCBCBC" d="M647.609 481.136h-6.215c-.039-10.976-8.945-19.862-19.93-19.862v9.038c-5.896-3.942-12.962-6.269-20.593-6.269-20.475 0-37.077 16.536-37.209 36.98h-.001v.017c0 .075-.011.148-.011.223h.011v7.06h-.009c0 12 9.727 21.728 21.728 21.728 12.001 0 21.728-9.728 21.728-21.728h-12.514a9.215 9.215 0 0 1-18.429 0h-.014v-7.06h3.981v7.104a5.378 5.378 0 0 0 10.756 0v-7.104h19.847v7.104a5.378 5.378 0 0 0 10.756 0v-7.104h5.824c.053 0 .104.008.159.008.054 0 .105-.008.159-.008h1.262c-.002-.022.007-.042.005-.064 10.451-.734 18.709-9.424 18.709-20.063z"/><path fill="#A3A3A3" d="M585.307 485.539a4.124 4.124 0 0 0 4.124-4.123v-15.564a36.962 36.962 0 0 0-8.248 3.865v11.699a4.124 4.124 0 0 0 4.124 4.123zM599.162 485.539a4.123 4.123 0 0 0 4.123-4.123v-17.262c-.802-.052-1.6-.111-2.415-.111-1.989 0-3.927.201-5.832.502v16.872a4.123 4.123 0 0 0 4.124 4.122zM613.017 485.539a4.124 4.124 0 0 0 4.124-4.123v-13.63c-2.59-1.264-5.362-2.203-8.247-2.839v16.469a4.123 4.123 0 0 0 4.123 4.123z"/><circle fill="#A3A3A3" cx="629.597" cy="485.114" r="6.309"/><circle fill="#666" cx="629.597" cy="485.114" r="2.091"/><path fill="#BCBCBC" d="M756.555 499.763c0-14.318-11.607-25.926-25.926-25.926-14.319 0-25.926 11.607-25.926 25.926 0 12.243 8.497 22.479 19.909 25.196 1.419 5.195 6.15 9.019 11.795 9.019v-8.958c11.533-2.63 20.148-12.928 20.148-25.257z"/><path fill="#D8D8D8" d="M732.767 486.97c0-16.375-13.275-29.65-29.65-29.65s-29.65 13.275-29.65 29.65c0 14.002 9.718 25.708 22.769 28.815 1.623 5.941 7.033 10.315 13.489 10.315v-10.245c13.19-3.007 23.042-14.784 23.042-28.885z"/><path fill="#999" d="M863.818 475.727c0 21.399-17.347 38.746-38.746 38.746s-38.746-17.347-38.746-38.746"/><path fill="#A3A3A3" d="M851.585 503.928c-6.933-6.521-16.243-10.545-26.513-10.545s-19.58 4.024-26.513 10.545c6.933 6.521 16.243 10.545 26.513 10.545s19.58-4.024 26.513-10.545z"/><path fill="#D6D6D6" d="M792.702 475.727h65.884v10.953h-65.884z"/><path fill="#CCC" d="M962.569 530.639h-68.891l12.86-28.844h68.89z"/><path fill="#B5B5B5" d="M976.87 504.452a12.149 12.149 0 0 0-9.43-8.655c3.768-4.041 6.091-9.447 6.091-15.408 0-12.493-10.127-22.62-22.62-22.62s-22.62 10.127-22.62 22.62c0 1.328.137 2.621.357 3.887-3.219.769-5.765 3.189-6.751 6.318a14.375 14.375 0 0 0-3.664-.489c-7.944 0-14.384 6.44-14.384 14.384h10.475v.038h50.402v-.076h12.144z"/><path opacity=".6" fill="#FFF" d="M1010.712 506.186l20.974-20.974a14.784 14.784 0 0 0-10.558-4.42c-8.194 0-14.835 6.642-14.835 14.836 0 4.133 1.693 7.868 4.419 10.558zM1079.171 484.987a14.776 14.776 0 0 0-10.324-4.194c-8.194 0-14.835 6.642-14.835 14.836 0 4.016 1.602 7.653 4.194 10.324l20.965-20.966z"/><path fill="#BCBCBC" d="M1091.177 493.792h-4.554c-.993-8.849-8.514-15.753-17.623-15.753-8.128 0-14.979 5.502-17.07 12.972a10.68 10.68 0 0 0-6.829-2.494c-2.533 0-4.901.88-6.767 2.42-2.115-7.433-8.952-12.898-17.053-12.898-9.109 0-16.629 6.905-17.621 15.753h-3.79v4.588h3.883c1.264 8.551 8.631 15.141 17.528 15.141 9.782 0 17.742-7.958 17.742-17.74v-.01c1.236-2.214 3.524-3.584 6.078-3.584 2.584 0 4.968 1.466 6.166 3.743.081 9.713 8 17.591 17.733 17.591 8.897 0 16.265-6.59 17.53-15.141h4.648v-4.588zm-69.896 16.059c-7.759 0-14.07-6.311-14.07-14.07s6.311-14.071 14.07-14.071 14.071 6.312 14.071 14.071-6.312 14.07-14.071 14.07zm47.718 0c-7.759 0-14.07-6.311-14.07-14.07s6.311-14.071 14.07-14.071 14.071 6.312 14.071 14.071-6.312 14.07-14.071 14.07z"/><g fill="#AFAFAF"><path d="M164.492 604.376a3.936 3.936 0 0 0-5.501.856l-10.782 14.755-14.966-10.937a3.936 3.936 0 1 0-4.645 6.357l17.868 13.057c.285.208.592.357.907.479a3.929 3.929 0 0 0 4.919-1.197l13.057-17.868a3.94 3.94 0 0 0-.857-5.502zM172.574 623.847a3.937 3.937 0 0 0-3.937 3.937v22.13a3.937 3.937 0 1 0 7.874 0v-22.13a3.936 3.936 0 0 0-3.937-3.937z"/><path d="M200.484 600.347a3.524 3.524 0 0 0-4.939.657l-3.461 5.227-14.164-10.262a4.326 4.326 0 0 0-3.139-.779 3.902 3.902 0 0 0-1.026-.859l-19.26-10.9a3.893 3.893 0 0 0-1.835-.492c-.107-.009-.212-.006-.319-.006-.043.002-.086.001-.129.005-.979.042-1.93.48-2.589 1.297-.015.017-.031.031-.045.048l-.016.017-.058.088a3.956 3.956 0 0 0-.374.529c-.02.035-.028.072-.047.107l-5.56 8.397a3.524 3.524 0 0 0 5.596 4.282l3.983-6.015 16.776 9.494a3.897 3.897 0 0 0 1.732.49 4.34 4.34 0 0 0 1.205 1.343l16.533 11.978a4.337 4.337 0 0 0 3.25.77 3.502 3.502 0 0 0 2.504-1.357l.057-.086c.088-.1.185-.188.265-.298a4.34 4.34 0 0 0 .449-.781l5.268-7.956a3.522 3.522 0 0 0-.657-4.938z"/><path d="M179.911 596.261l3.568-5.148a13.826 13.826 0 0 0 10.038-.778c-2.783-2.331-3.395-6.421-1.276-9.451l6.775 4.74a13.847 13.847 0 0 0 2.414-7.831c0-7.687-6.232-13.918-13.918-13.918s-13.918 6.232-13.918 13.918c0 3.44 1.255 6.583 3.323 9.012l-3.455 4.985 6.449 4.471z"/></g><path fill="#D8D8D8" d="M188.55 654.515a5.708 5.708 0 0 0-5.708-5.708l-14.219-.02v5.7c0 .01-.003.019-.003.028h19.93z"/><path fill="#BCBCBC" d="M163.793 629.902l16.817-24.977a9.253 9.253 0 0 0-2.259-12.89 9.253 9.253 0 0 0-12.89 2.259l-16.935 24.15"/><path fill="#D8D8D8" d="M118.304 622.936a5.707 5.707 0 0 0 7.941-1.449l8.102-11.685-4.688-3.241c-.008-.005-.014-.013-.022-.018l-11.333 16.393zM154.171 610.094l20.412 13.98-6.502 9.493-20.412-13.981z"/><path fill="#A3A3A3" d="M174.384 572.762a8.043 8.043 0 0 1-14.609-6.727M154.159 610.168l-6.465 9.439 9.1 6.233c-4.856-3.699-6.052-10.567-2.572-15.67a.802.802 0 0 1-.063-.002z"/><path fill="#A3A3A3" d="M179.223 575.292c2.124-2.652 5.925-3.132 8.658-1.184-.181-1.856.409-3.773 1.831-5.194 1.988-1.988 4.941-2.383 7.341-1.236.31.293.592.614.875.934-3.676-4.609-10.057-6.501-15.83-4.231-7.09 2.788-10.577 10.796-7.788 17.885l.454-.179 4.459-6.795z"/><path fill="#FFF" d="M194.137 577.094a1.997 1.997 0 1 1 3.473 1.973"/><g fill="#AFAFAF"><path d="M58.36 603.976a3.968 3.968 0 0 0-5.545.862L41.947 619.71l-15.086-11.024a3.968 3.968 0 1 0-4.682 6.408l18.01 13.161c.287.21.597.36.914.482a3.96 3.96 0 0 0 4.959-1.207l13.161-18.01a3.967 3.967 0 0 0-.863-5.544zM66.507 623.602a3.968 3.968 0 0 0-3.968 3.968v22.307a3.969 3.969 0 0 0 7.936 0V627.57a3.968 3.968 0 0 0-3.968-3.968z"/><path d="M94.64 599.915a3.55 3.55 0 0 0-4.978.662l-3.489 5.269-14.277-10.344a4.358 4.358 0 0 0-3.164-.785 3.925 3.925 0 0 0-1.034-.865l-19.413-10.987a3.92 3.92 0 0 0-1.849-.496c-.107-.009-.214-.006-.321-.006-.043.002-.087.001-.13.005a3.524 3.524 0 0 0-2.609 1.308l-.046.049-.016.017-.059.089a3.953 3.953 0 0 0-.377.533c-.02.035-.029.072-.047.108l-5.604 8.464a3.551 3.551 0 0 0 5.64 4.316l4.014-6.063 16.91 9.57c.554.313 1.15.463 1.745.494a4.36 4.36 0 0 0 1.215 1.353l16.665 12.073a4.368 4.368 0 0 0 3.276.776 3.529 3.529 0 0 0 2.524-1.368l.056-.087c.088-.101.187-.189.267-.3.182-.251.331-.515.453-.788l5.31-8.019a3.55 3.55 0 0 0-.662-4.978z"/><path d="M73.902 595.796l3.597-5.189a13.938 13.938 0 0 0 10.118-.785c-2.805-2.349-3.423-6.473-1.286-9.526l6.829 4.778a13.961 13.961 0 0 0 2.433-7.894c0-7.748-6.281-14.029-14.03-14.029s-14.029 6.281-14.029 14.029c0 3.468 1.265 6.636 3.349 9.084l-3.483 5.025 6.502 4.507z"/></g><path fill="#D8D8D8" d="M82.61 654.515a5.754 5.754 0 0 0-5.754-5.754l-14.332-.02v5.745c0 .01-.003.019-.003.029H82.61z"/><path fill="#BCBCBC" d="M57.656 629.706l16.951-25.176a9.327 9.327 0 0 0-2.277-12.993 9.327 9.327 0 0 0-12.993 2.277l-17.07 24.343"/><path fill="#D8D8D8" d="M11.804 622.684a5.753 5.753 0 0 0 8.004-1.461l8.167-11.778-4.726-3.267-.022-.019-11.423 16.525zM47.963 609.736l20.573 14.092-6.554 9.569-20.573-14.093z"/><path fill="#A3A3A3" d="M68.331 572.11a8.106 8.106 0 1 1-14.725-6.781M47.946 609.815l-6.517 9.515 9.173 6.283c-4.895-3.729-6.101-10.651-2.593-15.795a.857.857 0 0 0-.063-.003z"/><path fill="#A3A3A3" d="M73.209 574.66c2.141-2.673 5.972-3.157 8.727-1.193-.183-1.871.413-3.803 1.845-5.236 2.004-2.004 4.98-2.402 7.4-1.246.313.295.597.619.882.941-3.706-4.646-10.137-6.553-15.956-4.264-7.146 2.81-10.661 10.882-7.851 18.028l.458-.18 4.495-6.85z"/><path fill="#FFF" d="M88.242 576.476a2.012 2.012 0 1 1 3.5 1.988"/><circle fill="#BCBCBC" cx="368.583" cy="636.333" r="7.593"/><circle fill="#BCBCBC" cx="386.826" cy="648.873" r="4.281"/><path fill="#BCBCBC" d="M413.805 576.206c-2.679-8.828-10.878-15.255-20.582-15.255-10.03 0-18.456 6.866-20.836 16.155a16.872 16.872 0 0 0-5.475-.911c-9.341 0-16.914 7.573-16.914 16.914 0 3.256.922 6.295 2.516 8.876a11.847 11.847 0 0 0-3.143 8.038c0 6.574 5.329 11.903 11.902 11.903 5.547 0 10.193-3.8 11.514-8.934a21.05 21.05 0 0 0 7.07 1.208c5.676 0 10.755-2.204 14.163-5.674a18.91 18.91 0 0 0 11.103 3.586c10.495 0 19.002-8.508 19.002-19.002.003-7.368-4.191-13.751-10.32-16.904z"/><path fill="#A3A3A3" d="M577.003 588.756c0-15.882 12.875-28.757 28.757-28.757 15.882 0 28.757 12.875 28.757 28.757v15.047c0 15.882-12.875 28.757-28.757 28.757-15.882 0-28.757-12.875-28.757-28.757v-15.047z"/><path fill="#D8D8D8" d="M618.296 586.601c-5.324-.282-10.432.482-15.721 1.001-5.056.496-10.228.979-15.205.291a24.505 24.505 0 0 0-1.753 9.083v27.03c0 13.589 11.015 24.604 24.604 24.604s24.604-11.016 24.604-24.604v-27.03c0-3.564-.774-6.942-2.137-9.999-4.819.714-9.268-.104-14.392-.376z"/><path fill="#E8E8E8" d="M595.729 617.179c0 5.356-4.342 9.697-9.697 9.697-5.356 0-9.697-4.342-9.697-9.697 0-5.355 4.342-9.697 9.697-9.697 5.355 0 9.697 4.341 9.697 9.697z"/><path fill="#D8D8D8" d="M585.618 607.719v16.287c0 13.589 11.016 24.604 24.604 24.604 13.589 0 24.604-11.016 24.604-24.604v-16.287h-49.208z"/><path fill="#C4C4C4" d="M610.497 616.891l18.855 22.573a24.492 24.492 0 0 0 5.475-15.459v-16.287h-23.854l-.476 1.792-.476-1.792h-24.403v16.287a24.494 24.494 0 0 0 5.746 15.791l19.133-22.905z"/><path fill="#D8D8D8" d="M618.302 607.148a7.964 7.964 0 1 1-15.928 0v-13.182a7.965 7.965 0 0 1 15.928 0v13.182z"/><path fill="#A3A3A3" d="M593.455 601.429a4.447 4.447 0 0 1 8.894 0M619.536 601.429a4.447 4.447 0 0 1 8.894 0"/><path fill="#E8E8E8" d="M585.156 583.771h49.902v9.782h-49.902z"/><path fill="#A3A3A3" d="M525.937 590.834c-2.415.409-4.856.669-7.341.708a1.925 1.925 0 0 1-.515 1.461c-4.157 4.457-9.606 6.052-15.346 5.985-.369.051-.738.117-1.106.158-.231.095-.46.191-.7.285-.525.206-.998.114-1.397-.123a49.048 49.048 0 0 1-6.158-.031c-3.398.198-6.649-.128-9.531-1.283-.081-.016-.162-.028-.243-.043a1.744 1.744 0 0 1-.9-.47c-2.426-1.212-4.549-3.083-6.2-5.864-.048-.082-.07-.16-.099-.24-2.68-.152-5.345-.418-7.998-.776a77.926 77.926 0 0 1-5.246 3.601c-2.343 2.232-4.973 4.125-7.791 5.739-.159.132-.316.267-.475.398 7.092 16.63 23.575 28.294 42.796 28.294 18.883 0 35.073-11.281 42.354-27.446-5.045-2.994-9.714-6.467-14.104-10.353z"/><path fill="#BCBCBC" d="M519.028 581.471c-9.801 0-18.152 6.12-21.498 14.738-3.345-8.618-11.696-14.738-21.497-14.738-12.743 0-23.073 10.33-23.073 23.074h89.141c.001-12.744-10.33-23.074-23.073-23.074z"/><path fill="#A3A3A3" d="M725.269 569.031h-19.313c-16.328 0-29.687 13.359-29.687 29.687 0 16.328 13.359 29.687 29.687 29.687h19.313c16.328 0 29.687-13.359 29.687-29.687 0-16.328-13.359-29.687-29.687-29.687z"/><path fill="#C4C4C4" d="M704.348 628.405h23.039v6.486h-23.039zM704.103 562.093h23.019v6.939h-23.019zM708.138 647.472h-.082a1.024 1.024 0 0 1-1.021-1.021v-9.263c0-.562.459-1.021 1.021-1.021h.082c.562 0 1.021.459 1.021 1.021v9.263c0 .561-.459 1.021-1.021 1.021zM715.654 647.472h-.082a1.023 1.023 0 0 1-1.021-1.021v-9.263c0-.562.459-1.021 1.021-1.021h.082c.562 0 1.021.459 1.021 1.021v9.263a1.025 1.025 0 0 1-1.021 1.021zM711.98 647.472h-.082a1.023 1.023 0 0 1-1.021-1.021v-9.263c0-.562.459-1.021 1.021-1.021h.082c.562 0 1.021.459 1.021 1.021v9.263c0 .561-.459 1.021-1.021 1.021zM719.557 647.472h-.082a1.023 1.023 0 0 1-1.021-1.021v-9.263c0-.562.459-1.021 1.021-1.021h.082c.562 0 1.021.459 1.021 1.021v9.263a1.025 1.025 0 0 1-1.021 1.021zM723.75 647.472h-.082a1.023 1.023 0 0 1-1.021-1.021v-9.263c0-.562.459-1.021 1.021-1.021h.082c.561 0 1.021.459 1.021 1.021v9.263c0 .561-.46 1.021-1.021 1.021z"/><g><path fill="#C4C4C4" d="M715.927 631.796c-15.581 0-28.256-14.842-28.256-33.086 0-18.243 12.676-33.085 28.256-33.085s28.256 14.842 28.256 33.085c0 18.243-12.676 33.086-28.256 33.086zm0-63.73c-14.234 0-25.815 13.747-25.815 30.643 0 16.898 11.581 30.644 25.815 30.644 14.234 0 25.815-13.747 25.815-30.644 0-16.896-11.581-30.643-25.815-30.643z"/></g><path fill="#E8E8E8" d="M708.097 562.093h5.896v6.939h-5.896zM708.097 628.501h5.896v6.367h-5.896z"/></svg>