<svg version="1.1" xmlns="http://www.w3.org/2000/svg" x="0" y="0" width="1100" height="1100" viewBox="0 0 1100 1100" xml:space="preserve"><path fill="#FFF" d="M71.859 21.638l-7.695 8.485 5.694 4.101-8.656 20.952 3.645-17.765-7.745-5.921 7.918-15.439c-3.193-1.918-6.577-3.026-10.082-3.026-19.307 0-34.958 33.432-34.958 52.74 0 19.307 15.651 33.591 34.958 33.591 19.308 0 34.961-14.284 34.961-33.591 0-13.166-7.284-32.905-18.04-44.127z"/><path opacity=".2" fill="#1CB0F6" d="M54.938 82.979c-14.495 0-27.278-6.63-34.958-17.215v.001c0 19.308 15.652 33.591 34.958 33.591 19.308 0 34.961-14.284 34.961-33.591v-.003c-7.681 10.587-20.465 17.217-34.961 17.217z"/><path fill="#FFD833" d="M142.281 70.543c6.778 2.458 13.571 4.775 19.908 8.307.04.022.058.055.096.079 3.906.766 7.896 1.256 11.938 1.542 4.916-2.937 9.294-7.008 11.712-11.862.441-.885 1.249-1.116 2.008-.956l3.414-2.775c.462-.474 1.005-.632 1.525-.587V42.465c0-14.979-12.143-27.123-27.123-27.123s-27.123 12.143-27.123 27.123v25.691a102.67 102.67 0 0 0 3.645 2.387z"/><path fill="#FFD833" d="M172.218 18.315v-7.701c-4.315 0-7.823 3.423-7.977 7.701h7.977z"/><path fill="#FFD833" d="M160.678 18.315v-6.752c3.784 0 6.859 3.001 6.994 6.752h-6.994z"/><path fill="#353535" d="M156.929 35.504a4.96 4.96 0 1 0-9.92 0M186.477 35.504a4.96 4.96 0 1 0-9.92 0"/><path fill="#FF9700" d="M157.77 41.508l8.795-8.794 8.794 8.794-8.794 8.795z"/><path fill="#FFD833" d="M121.639 43.977c0 9.989 8.097 18.086 18.086 18.086V43.977h-18.086zM208.05 43.977c0 9.989-8.097 18.086-18.086 18.086V43.977h18.086z"/><path fill="#E86E00" d="M175.36 41.508l-8.951 2.591-8.637-2.591 8.794 8.794z"/><path fill="#FFD833" d="M136.041 58.379l.837 8.708L141.4 76.8l15.072 6.029 24.45-2.01 16.077-11.053-1.34-7.703-1.005-3.684s-17.751-3.182-18.756-3.182-25.12-4.522-25.12-4.522l-14.737 7.704z"/><path fill="#FFF" d="M198.008 58.336v9.862c0 17.908-14.518 32.426-32.426 32.426s-32.426-14.518-32.426-32.426v-9.862l13.15 10.609 19.698-10.83L185.312 69.1l12.696-10.764z"/><path opacity=".8" fill="#FCC" d="M165.096 88.188c-12.937 0-24.393-6.218-31.638-15.797 2.061 15.923 15.641 28.234 32.125 28.234 17.007 0 30.931-13.101 32.291-29.757-7.148 10.453-19.158 17.32-32.778 17.32z"/><path fill="#E29256" d="M316.477 72.703h-81.724c-2.813 0-2.709 2.141-2.709 4.952 0 2.823 2.28 4.954 5.098 4.954h76.763c2.813 0 5.097-2.132 5.097-4.954.002-2.811.289-4.952-2.525-4.952z"/><path fill="#562C1F" d="M322.852 65.646a7.036 7.036 0 0 1-7.036 7.036h-80.115a7.036 7.036 0 1 1 0-14.072h80.115a7.035 7.035 0 0 1 7.036 7.036z"/><path fill="#FFE600" d="M246.431 75.754a4.974 4.974 0 0 0 9.948 0V55.383a4.974 4.974 0 0 0-9.948 0v20.371z"/><path fill="#D33131" d="M256.417 70.677a4.974 4.974 0 0 0 9.948 0V50.305a4.974 4.974 0 0 0-9.948 0v20.372z"/><path fill="#E29256" d="M232.259 53.699c0-15.715 12.739-28.454 28.454-28.454h29.648c15.715 0 28.454 12.739 28.454 28.454"/><ellipse fill="#FFBD7B" cx="260.633" cy="31.424" rx="3.534" ry="1.536"/><ellipse fill="#FFBD7B" cx="290.339" cy="31.424" rx="3.534" ry="1.536"/><ellipse fill="#FFBD7B" cx="275.588" cy="37.775" rx="3.534" ry="1.536"/><path fill="#70B700" d="M322.662 56.129c0 1.383-1.076 2.504-2.404 2.504h-88.949c-1.328 0-2.404-1.121-2.404-2.504s1.076-2.504 2.404-2.504h88.949c1.328 0 2.404 1.121 2.404 2.504z"/><path fill="#CE8655" d="M392.341 61.035v-5.442a6.866 6.866 0 1 0-13.732 0v5.442h-22.427v6.801h11.091c6.572 2.088 11.336 8.235 11.336 15.498v8.035a6.866 6.866 0 1 0 13.732 0v-9.937c.749-6.418 5.226-11.694 11.215-13.596h10.595v-6.801h-21.81zm-7.041 32.24a2.788 2.788 0 1 1 0-5.575 2.788 2.788 0 0 1 0 5.575z"/><path fill="#515151" d="M413.453 50.286h-56.306L352.878 13h64.844z"/><path fill="#E5E5E5" d="M354.858 47.396h60.618v14.309h-60.618z"/><path fill="#1CB0F6" d="M360.717 13.126v14.27a3.09 3.09 0 1 0 6.18 0v-8.447c.026.101.045.164.054.162a2.293 2.293 0 1 1 4.584 0l.014-.089v18.577a4.35 4.35 0 1 0 8.7 0V20.316a3.281 3.281 0 0 1 3.277-3.193c1.492 0 2.737 1 3.138 2.362v12.068a4.35 4.35 0 1 0 8.7 0V13.126h-34.647z"/><path fill="#C17B4C" d="M503.61 46.085a4.157 4.157 0 0 1 5.806-.928l15.799 11.446a4.157 4.157 0 1 1-4.878 6.734l-15.799-11.446a4.158 4.158 0 0 1-.928-5.806zM479.667 76.341a3.762 3.762 0 0 1-.818-5.257l12.478-17.075a3.762 3.762 0 1 1 6.075 4.439l-12.478 17.075a3.761 3.761 0 0 1-5.257.818zM504.308 100.469a3.762 3.762 0 0 1-3.762-3.762V75.56a3.762 3.762 0 1 1 7.524 0v21.148a3.761 3.761 0 0 1-3.762 3.761z"/><path fill="#C17B4C" d="M461.465 58.475a3.762 3.762 0 0 1 5.257-.818l17.075 12.478a3.762 3.762 0 1 1-4.439 6.075l-17.075-12.478a3.761 3.761 0 0 1-.818-5.257zM510.246 33.852l6.164 4.273-5.086 7.337-6.164-4.273z"/><path fill="#FFF" d="M519.574 101.105a5.455 5.455 0 0 0-5.455-5.455l-13.588-.019v5.447l-.003.027h19.046z"/><path fill="#FFD833" d="M495.917 77.584l16.07-23.868a8.844 8.844 0 0 0-14.476-10.16l-16.184 23.078"/><path fill="#C17B4C" d="M521.116 63.404a3.366 3.366 0 0 1-.628-4.719l5.771-8.716a3.366 3.366 0 1 1 5.347 4.091l-5.771 8.716a3.365 3.365 0 0 1-4.719.628zM477.175 47.443a3.366 3.366 0 0 1-.628-4.719l5.771-8.716a3.367 3.367 0 1 1 5.348 4.091l-5.771 8.716a3.367 3.367 0 0 1-4.72.628z"/><path fill="#FFF" d="M452.447 70.927a5.455 5.455 0 0 0 7.589-1.385l7.742-11.166-4.48-3.097c-.008-.005-.013-.012-.021-.018l-10.83 15.666z"/><path fill="#C17B4C" d="M481.906 34.598a3.762 3.762 0 0 1 5.127-1.421l18.405 10.416a3.762 3.762 0 0 1-3.706 6.548l-18.405-10.416a3.76 3.76 0 0 1-1.421-5.127z"/><path fill="#FFF" d="M486.724 58.686l19.505 13.361-6.213 9.07-19.506-13.36z"/><path fill="#915126" d="M506.496 22.75a7.685 7.685 0 0 1-13.461-7.417"/><path fill="#C17B4C" d="M523.102 30.742l6.475 4.53a13.237 13.237 0 0 0 2.307-7.483c0-7.346-5.955-13.301-13.301-13.301s-13.301 5.955-13.301 13.301 5.955 13.301 13.301 13.301c2.046 0 3.977-.476 5.709-1.301a6.76 6.76 0 0 1-1.19-9.047z"/><path fill="#CECECE" d="M486.711 58.726l-6.178 9.02 8.696 5.956c-4.641-3.535-5.784-10.098-2.458-14.974a.722.722 0 0 1-.06-.002z"/><path fill="#FFF" d="M524.914 27.12a1.91 1.91 0 0 1 3.319 1.885"/><path fill="#915126" d="M516.903 22.085a5.907 5.907 0 0 1 8.103-2.029l6.274 3.762c-1.689-5.407-6.734-9.331-12.697-9.331-7.346 0-13.301 5.955-13.301 13.301 0 3.243 1.164 6.213 3.093 8.521l8.528-14.224z"/><circle fill="#C17B4C" cx="513.734" cy="26.764" r="3.445"/><path fill="#4949DB" d="M645.774 56.712c0 20.619-16.715 37.335-37.335 37.335s-37.335-16.715-37.335-37.335"/><path fill="#4949DB" d="M634.334 81.963c-14.58 14.58-38.219 14.58-52.799 0-14.58-14.58-14.58-38.219 0-52.799M592.441 18.494a8.092 8.092 0 0 1-13.92 8.254M568.826 20.698a8.091 8.091 0 1 0 15.354 5.112"/><path opacity=".3" fill="#1CB0F6" d="M608.439 94.046c20.558 0 37.226-16.618 37.326-37.153l-60.321 29.202a37.097 37.097 0 0 0 22.995 7.951z"/><path fill="#4949DB" d="M578.516 87.468c2.51 6.247 9.609 9.277 15.856 6.767 6.247-2.51 9.277-9.609 6.767-15.856"/><circle opacity=".7" fill="#FFF" cx="626.161" cy="43.715" r="2.205"/><circle opacity=".7" fill="#FFF" cx="633.487" cy="34.973" r="3.151"/><circle opacity=".7" fill="#FFF" cx="625.925" cy="23.63" r="3.859"/><path fill="#FFF" d="M605.334 71.042c-.034-.087-.031-.18-.075-.265a2.74 2.74 0 0 0-4.878 2.5c.044.085.121.137.172.216l4.781-2.451z"/><path opacity=".6" fill="#FFF" d="M750.548 84.169c.011-.005.018-.016.029-.021l-25.06-40.378V24.234h.921a1.842 1.842 0 0 0 0-3.684h-19.256a1.842 1.842 0 0 0 0 3.684h.879v19.977l-24.665 39.742c.003.002.005.006.009.008a3.85 3.85 0 0 0-.586 2.029 3.878 3.878 0 0 0 3.784 3.873c-.003.007 60.464.01 60.536.01a3.883 3.883 0 0 0 3.883-3.883 3.851 3.851 0 0 0-.474-1.821z"/><path fill="#70B700" d="M718 34.447a3.157 3.157 0 1 1-6.314.002 3.157 3.157 0 0 1 6.314-.002z"/><circle fill="#70B700" cx="722.638" cy="56.643" r="2.639"/><path fill="#70B700" d="M687.289 85.412h59.21l-14.895-23.751S720.2 72.332 700.735 72.332c-3.265 0-5.157-.254-5.157-.254l-8.289 13.334z"/><path opacity=".7" fill="#FFF" d="M715.863 43.992h-3.111l-20.263 41.527h7.943z"/><path fill="#E59200" d="M852.923 68.8H816.54l6.064-15.16h24.255zM835.932 53.64h-36.383l6.064-15.159h24.255zM816.54 68.8h-36.382l6.063-15.16h24.256z"/><path fill="#FFCE00" d="M868.083 53.64h-10.928l-6.064-15.159h-24.255l-6.064 15.159h-13.327l-6.064 15.16h36.383L831.7 53.64h12.128l-6.064 15.16h36.383z"/><g><path fill="#FFF" d="M851.843 33.039a9.764 9.764 0 0 1 5.266 5.36 9.764 9.764 0 0 1 5.266-5.36 9.764 9.764 0 0 1-5.266-5.36 9.764 9.764 0 0 1-5.266 5.36z"/></g><g><path fill="#FFF" d="M795.412 79.784a9.679 9.679 0 0 1 5.22 5.313 9.679 9.679 0 0 1 5.22-5.313 9.679 9.679 0 0 1-5.22-5.313 9.679 9.679 0 0 1-5.22 5.313z"/></g><circle fill="#FFF" cx="935.794" cy="55.543" r="40.089"/><path fill="#565656" d="M927.723 16.268c-2.766 2.662-4.651 5.644-4.651 5.644l12.709 5.445 13.16-5.473s-1.544-2.729-4.049-5.383a40.327 40.327 0 0 0-9.096-1.047c-2.767 0-5.465.278-8.073.814zM971.632 58.44s2.293-2.387 4.144-5.686a39.836 39.836 0 0 0-4.634-16.131c-3.411-1.967-6.953-2.959-6.953-2.959l-1.572 13.735 9.015 11.041zM899.607 58.44l9.016-11.041-1.572-13.735s-3.206.901-6.454 2.681a39.857 39.857 0 0 0-4.824 16.942c1.787 3.016 3.834 5.153 3.834 5.153zM904.662 73.67s-.432 3.339-.055 7.053a40.239 40.239 0 0 0 13.864 10.98c3.395-.475 6.074-1.487 6.074-1.487l-6.628-12.619-13.255-3.927zM966.56 81.239c.478-3.913.002-7.57.002-7.57l-13.254 3.927-6.628 12.619s2.826 1.071 6.354 1.527a40.25 40.25 0 0 0 13.526-10.503zM927.614 67.52l-4.954-15.072 12.968-9.336 12.967 9.294-4.954 15.114z"/><circle fill="#FFF" cx="1021.968" cy="73.201" r="11.965"/><circle fill="none" stroke="#681626" stroke-width="2.31" stroke-miterlimit="10" cx="1021.968" cy="73.201" r="7.364"/><path fill="#681626" d="M1063.802 70.335h-10.542V59.941h5.469c6.858 0 12.437-5.579 12.437-12.435v-7.123h-6.024v7.123a6.419 6.419 0 0 1-6.413 6.411h-16.962a6.42 6.42 0 0 1-6.413-6.411v-7.123h-6.024v7.123c0 6.857 5.579 12.435 12.437 12.435h5.469v10.394h-18.867v6.024h18.867v10.542c0 9.134 7.432 16.566 16.566 16.566 9.135 0 16.566-7.432 16.566-16.566 0-9.133-7.432-16.566-16.566-16.566zm0 27.109c-5.812 0-10.542-4.729-10.542-10.542V76.36h10.542c5.813 0 10.542 4.729 10.542 10.542s-4.729 10.542-10.542 10.542z"/><g fill="#FFF"><path d="M1035.354 19.705a6.42 6.42 0 0 1 6.413-6.412V7.269c-6.858 0-12.437 5.579-12.437 12.436v20.677h6.024V19.705zM1058.729 7.269v6.024a6.42 6.42 0 0 1 6.413 6.412v20.677h6.024V19.705c-.001-6.857-5.579-12.436-12.437-12.436z"/></g><path fill="#FFF" d="M96.089 191.299v-3.788h-4.467v-3.864h-3.35V156.54h.047c.574 0 1.039-.465 1.039-1.039a1.02 1.02 0 0 0-.394-.795h5.176L54.583 133.29l-39.557 21.416h6.611a1.02 1.02 0 0 0-.394.795c0 .574.465 1.039 1.039 1.039h.101v27.106H18.66v3.864h-4.095v3.788h-3.877v3.837h89.48v-3.837h-4.079zM80.353 156.54h.101v27.106h-12.47V156.54h.093c.574 0 1.039-.465 1.039-1.039a1.02 1.02 0 0 0-.394-.795h10.986a1.02 1.02 0 0 0-.394.795c0 .574.465 1.039 1.039 1.039zm-20.886-1.834a1.02 1.02 0 0 0-.394.795c0 .574.465 1.039 1.039 1.039h.054v27.106H48.534V156.54h.093c.574 0 1.039-.465 1.039-1.039a1.02 1.02 0 0 0-.394-.795h10.195zM30.2 156.54h.047c.574 0 1.039-.465 1.039-1.039a1.02 1.02 0 0 0-.394-.795h9.125a1.02 1.02 0 0 0-.394.795c0 .574.465 1.039 1.039 1.039h.054v27.106H30.2V156.54z"/><g fill="#7AC70C"><path opacity=".3" d="M79.314 155.501c0 .574.465 1.039 1.039 1.039h.101v9.791h7.818v-9.791h.047c.574 0 1.039-.465 1.039-1.039 0-.303-.146-.559-.355-.747h-9.334a1.002 1.002 0 0 0-.355.747zM30.2 166.331v-9.791h.047c.574 0 1.039-.465 1.039-1.039 0-.303-.146-.559-.355-.747h-9.334a1.005 1.005 0 0 0-.355.747c0 .574.465 1.039 1.039 1.039h.101v9.791H30.2zM67.984 166.331v-9.791h.093c.574 0 1.039-.465 1.039-1.039 0-.303-.146-.559-.355-.747h-9.334a1.002 1.002 0 0 0-.355.747c0 .574.465 1.039 1.039 1.039h.054v9.791h7.819zM48.534 166.331v-9.791h.093c.574 0 1.039-.465 1.039-1.039 0-.303-.146-.559-.355-.747h-9.334a1.005 1.005 0 0 0-.355.747c0 .574.465 1.039 1.039 1.039h.054v9.791h7.819z"/></g><path fill="#FFF" d="M124.193 127.707h82.474v74.761h-82.474z"/><path fill="#D6D6D6" d="M129.104 132.159h72.651v65.856h-72.651z"/><path opacity=".4" fill="#FFF" d="M194.64 172.895a46.98 46.98 0 0 0-7.207-1.753l-.389 2.425c2.31.372 4.607.931 6.828 1.662l.768-2.334zM165.255 172.835a47.077 47.077 0 0 0-6.854 2.841l1.118 2.187a44.481 44.481 0 0 1 6.494-2.692l-.758-2.336zM180.045 172.992l-.187-2.456a47.89 47.89 0 0 0-7.389.573l.379 2.427c2.3-.361 4.66-.544 7.01-.544h.187z"/><path fill="#7AC70C" d="M129.104 132.159v9.905h9.067c-.024.204-.062.404-.062.614a5.219 5.219 0 0 0 5.219 5.219h15.349a5.219 5.219 0 0 0 5.219-5.219c0-.21-.038-.41-.062-.614h.369c5.425 0 9.823-4.398 9.823-9.823v-.082h-44.922z"/><g><path fill="#FFB103" d="M176.584 197.959h-7.367c0-22.117-17.994-40.111-40.113-40.111v-7.367c26.181 0 47.48 21.299 47.48 47.478z"/></g><path fill="#36C5F2" d="M178.63 137.767c0 9.399 6.506 17.258 15.255 19.374-.113.693-.213 1.39-.213 2.115 0 5.475 3.335 10.17 8.084 12.169V132.16h-22.313a19.918 19.918 0 0 0-.813 5.607z"/><path fill="#7AC70C" d="M150.132 185.368c.154-.65.256-1.319.256-2.015a8.749 8.749 0 0 0-8.749-8.749h-11.358c-.403 0-.788.066-1.177.119v17.26c.389.053.774.119 1.177.119h4.621a9.03 9.03 0 0 0-.17 1.688c0 1.535.418 2.959 1.092 4.226h18.996c.675-1.267 1.092-2.691 1.092-4.226.001-3.844-2.402-7.108-5.78-8.422z"/><path opacity=".2" d="M151.344 127.707h28.378v74.761h-28.378z"/><path opacity=".4" fill="#FFF" d="M141.625 190.002a47.277 47.277 0 0 0-3.883 6.313l2.187 1.118a44.584 44.584 0 0 1 3.681-5.985l-1.985-1.446zM152.081 179.554a47.735 47.735 0 0 0-5.638 4.816l1.736 1.736a45.09 45.09 0 0 1 5.346-4.566l-1.444-1.986z"/><path fill="#FFB103" d="M260.851 131.809c-12.326.152-22.274 10.186-22.274 22.548h75.984v-22.556h-53.71v.008zM292.124 199.027c12.326-.152 22.274-10.186 22.274-22.548h-75.984v22.556h53.71v-.008z"/><path fill="#E2E2E2" d="M237.568 175.492H248v25.093h-10.432z"/><path fill="#D68900" d="M254.873 186.249h3.331v12.715h-3.331zM274.371 186.249h3.331v12.715h-3.331zM293.87 198.918a22.542 22.542 0 0 0 3.331-.552v-12.117h-3.331v12.669zM284.121 192.464h3.331v6.5h-3.331zM264.622 192.464h3.331v6.5h-3.331z"/><path fill="#C67A00" d="M260.485 176.726c.065.002.129.012.194.014v-.014h53.718c0-12.363-9.947-22.396-22.273-22.548v-.007h-31.719v.012h-21.807c0 12.21 9.698 22.124 21.807 22.537v.006h.08z"/><path fill="#E2E2E2" d="M305.235 130.24h10.432v25.093h-10.432z"/><path fill="#D68900" d="M293.657 131.693h3.331v12.715h-3.331zM274.158 131.693h3.331v12.715h-3.331zM254.659 132.769v11.639h3.331v-12.362c-1.14.16-2.252.4-3.331.723zM264.409 131.693h3.331v6.5h-3.331zM283.907 131.693h3.331v6.5h-3.331z"/><path fill="#FFE000" d="M384.984 130.921c0 7.891-6.397 14.288-14.288 14.288a14.237 14.237 0 0 1-10.161-4.249l-.017.019a14.232 14.232 0 0 1 4.042 9.946c0 7.528-5.825 13.681-13.212 14.233 7.386.552 13.212 6.706 13.212 14.234a14.24 14.24 0 0 1-4.203 10.119l.017.018a14.227 14.227 0 0 1 9.902-4.002c7.891 0 14.288 6.397 14.288 14.288l-.002.032.045.002c-.001-.082-.012-.162-.012-.244 0-7.891 6.397-14.288 14.288-14.288 4.118 0 7.817 1.752 10.425 4.539l.031-.028a14.237 14.237 0 0 1-4.32-10.226c0-7.528 5.825-13.681 13.212-14.234-7.386-.552-13.212-6.706-13.212-14.233 0-4.03 1.675-7.664 4.359-10.261l-.019-.017a14.242 14.242 0 0 1-10.056 4.142c-7.862 0-14.236-6.351-14.283-14.201l-.02-.001-.022.001c0 .041.006.081.006.123z"/><circle fill="#FFB103" cx="385" cy="165.333" r="18.31"/><path opacity=".5" fill="#FFF" d="M349.151 191.458a44.112 44.112 0 0 1-3.648-5.919l-1.788.915a46.415 46.415 0 0 0 3.811 6.189l1.625-1.185zM391.793 121.5l.307-1.986a46.733 46.733 0 0 0-7.105-.541h-.14l.14 2.009c2.279 0 4.567.175 6.798.518zM339.209 172.674a46.575 46.575 0 0 0 1.706 7.069l1.909-.624a44.47 44.47 0 0 1-1.632-6.762l-1.983.317zM378.104 209.152l-.307 1.986c2.368.368 4.789.555 7.198.555h.047l-.047-2.009c-2.307 0-4.623-.179-6.891-.532zM392.288 211.122a46.283 46.283 0 0 0 7.072-1.697l-.624-1.911a44.06 44.06 0 0 1-6.76 1.624l.312 1.984zM358.971 201.252a44.572 44.572 0 0 1-5.294-4.513l-1.42 1.422a46.65 46.65 0 0 0 5.536 4.718l1.178-1.627zM341.167 158.485l-1.988-.305a47.406 47.406 0 0 0-.547 7.153v.093l2.011-.093c0-2.287.174-4.591.524-6.848zM342.771 151.719a44.039 44.039 0 0 1 2.649-6.432l-1.793-.91a46.148 46.148 0 0 0-2.77 6.728l1.914.614zM377.606 119.56c-2.393.383-4.77.959-7.065 1.712l.624 1.909a44.373 44.373 0 0 1 6.758-1.638l-.317-1.983zM363.992 206.676a46.24 46.24 0 0 0 6.725 2.777l.619-1.911a44.25 44.25 0 0 1-6.432-2.656l-.912 1.79zM353.554 134.051l-1.425-1.418a46.502 46.502 0 0 0-4.709 5.538l1.625 1.178a44.752 44.752 0 0 1 4.509-5.298zM405.909 123.948a46.11 46.11 0 0 0-6.73-2.764l-.615 1.914a44.055 44.055 0 0 1 6.437 2.643l.908-1.793zM426.316 186.374a45.886 45.886 0 0 0 2.784-6.722l-1.909-.619a44.393 44.393 0 0 1-2.663 6.429l1.788.912zM420.785 139.133a44.215 44.215 0 0 1 3.657 5.912l1.788-.92a46.493 46.493 0 0 0-3.825-6.18l-1.62 1.188zM430.76 157.896a46.693 46.693 0 0 0-1.72-7.063l-1.909.626a44.4 44.4 0 0 1 1.646 6.758l1.983-.321zM428.807 172.268l1.983.312c.375-2.38.566-4.819.566-7.247v-.186l-2.011.186c0 2.324-.182 4.657-.538 6.935zM416.369 196.681l1.42 1.42a46.752 46.752 0 0 0 4.723-5.529l-1.625-1.183a44.845 44.845 0 0 1-4.518 5.292zM405.16 204.847l.917 1.788a46.51 46.51 0 0 0 6.19-3.807l-1.183-1.623a44.626 44.626 0 0 1-5.924 3.642zM410.94 129.36a44.506 44.506 0 0 1 5.305 4.502l1.415-1.425a46.53 46.53 0 0 0-5.543-4.707l-1.177 1.63z"/><circle opacity=".5" fill="#FFF" cx="361.069" cy="127.477" r="5.023"/><path fill="#603C31" d="M497.396 130.388v5.254a6.298 6.298 0 0 1 6.292 6.292v30.472c0 3.299-2.561 5.984-5.795 6.242v-20.033h-5.254v30.504c-3.057-.427-5.425-3.032-5.425-6.204v-30.472a6.298 6.298 0 0 1 6.292-6.292v-5.254c-6.366 0-11.546 5.18-11.546 11.546v30.472c0 6.069 4.723 11.006 10.678 11.458v16.935h5.254v-27.407c6.131-.267 11.049-5.299 11.049-11.495v-30.472c.001-6.366-5.179-11.546-11.545-11.546z"/><circle fill="#519327" cx="479.348" cy="156.031" r="22.658"/><circle fill="#519327" cx="508.465" cy="144.318" r="25.285"/><circle fill="#519327" cx="484.383" cy="130.964" r="12.369"/><path fill="#61AF2F" d="M471.747 151.692l-.012-.028-.013.023-.026-.005.012.028c-.861 1.245-.987 3.171-.178 4.987.809 1.816 2.326 3.01 3.827 3.202l.012.028.013-.023.026.005-.012-.028c.861-1.245.987-3.171.178-4.987-.809-1.816-2.326-3.009-3.827-3.202zM494.757 149.391l-.012-.028-.013.023-.026-.005.012.028c-.861 1.245-.987 3.171-.178 4.987.809 1.816 2.326 3.01 3.827 3.202l.012.028.013-.023.026.005-.012-.028c.861-1.245.987-3.171.178-4.987-.809-1.816-2.325-3.01-3.827-3.202zM520.559 152.647l.025-.017c-.008-.003-.017-.005-.025-.009v-.026l-.025.017c-1.389-.601-3.302-.348-4.925.801-1.623 1.149-2.496 2.87-2.391 4.38l-.025.017c.008.003.017.005.025.009v.026l.025-.017c1.389.601 3.302.348 4.925-.801 1.622-1.149 2.496-2.87 2.391-4.38zM505.334 126.32l-.02-.023c-.003.008-.004.017-.006.025 0 0-.018.001-.026.003l.02.023c-.46 1.442-.018 3.321 1.287 4.821 1.305 1.501 3.104 2.199 4.596 1.944l.02.023c.003-.008.004-.017.006-.025.009-.001.018-.001.026-.003l-.02-.023c.46-1.442.018-3.321-1.287-4.821-1.305-1.5-3.104-2.199-4.596-1.944zM483.434 137.459l-.012.028.026-.005.014.022.012-.028c1.5-.203 3.008-1.407 3.804-3.229.796-1.822.656-3.747-.213-4.985l.012-.028-.026.005-.014-.022-.012.028c-1.5.203-3.008 1.407-3.804 3.229-.797 1.822-.657 3.746.213 4.985z"/><g opacity=".6"><path fill="#FFF" d="M605.849 124.771v-.01h-.038c-.052 0-.102.006-.154.006-.05 0-.098-.006-.15-.006h-.039v.01c-15.57.183-28.14 12.856-28.14 28.47 0 3.45.618 6.911 1.861 10.126 1.204 3.123 2.975 5.937 5.113 8.494 2.098 2.509 4.297 4.965 5.937 7.81 1.579 2.739 2.42 5.269 2.72 8.599h25.399c.301-3.329 1.145-5.86 2.72-8.599 1.639-2.845 3.838-5.301 5.937-7.81 2.142-2.557 3.913-5.371 5.117-8.494 1.241-3.215 1.859-6.675 1.859-10.126-.002-15.614-12.575-28.287-28.142-28.47z"/></g><circle opacity=".6" fill="#FFF" cx="592.415" cy="142.376" r="5.34"/><path fill="#E1D9E2" d="M621.074 189.366a2.61 2.61 0 0 1-2.61 2.61h-25.575a2.61 2.61 0 1 1 0-5.22h25.575a2.61 2.61 0 0 1 2.61 2.61zM618.582 196.486a2.61 2.61 0 0 1-2.61 2.61h-21.303a2.61 2.61 0 1 1 0-5.22h21.303a2.611 2.611 0 0 1 2.61 2.61zM596.619 201.117c1.372 3.634 4.855 6.23 8.969 6.23 4.114 0 7.597-2.597 8.968-6.23h-17.937z"/><path fill="#FFF" d="M690.749 148.932h53.717v44.924h-53.717z"/><path opacity=".25" fill="#7AC70C" d="M701.523 170.355a3.35 3.35 0 0 0-3.351 3.351v20.15h6.701v-20.15a3.35 3.35 0 0 0-3.35-3.351zM717.607 170.355c-1.85 0-3.351 1.5-3.351 3.351v20.15h6.701v-20.15a3.35 3.35 0 0 0-3.35-3.351zM684.354 147.973h68.105v17.046h-68.105zM733.692 170.355a3.35 3.35 0 0 0-3.351 3.351v20.15h6.701v-20.15a3.35 3.35 0 0 0-3.35-3.351z"/><path fill="#FFF" d="M749.102 137.126v-.024h-64.109v.016c-8.062.172-14.548 6.748-14.548 14.852 0 8.211 6.656 14.868 14.868 14.868 7.941 0 14.409-6.231 14.828-14.069h33.654c.418 7.837 6.886 14.069 14.828 14.069 8.211 0 14.868-6.657 14.868-14.868-.001-8.049-6.402-14.588-14.389-14.844z"/><circle fill="#68A9EA" cx="825.156" cy="165.859" r="44.038"/><path fill="#FFF" d="M857.307 149.073c9.266 17.756 2.389 39.664-15.365 48.935-17.756 9.269-39.667 2.39-48.937-15.363-9.267-17.756-2.389-39.664 15.365-48.935 17.756-9.269 39.666-2.391 48.937 15.363z"/><path fill="#D33131" d="M815.557 172.116l-4.751-30.253 23.761 19.314z"/><path fill="#BFBFBF" d="M834.563 161.161l4.75 30.253-23.762-19.319z"/><path fill="#FFF" d="M828.555 164.503a4.084 4.084 0 1 1-7.082 4.07 4.084 4.084 0 0 1 7.082-4.07z"/><path fill="#0C8EA3" d="M907.04 138.471h46.156v51.846H907.04z"/><path fill="#0C8EA3" d="M931.639 149.451h46.156v51.846h-46.156z"/><path fill="#076D6D" d="M953.195 138.471l-21.556 10.98h21.528z"/><path fill="#FFF" d="M898.805 137.556h5.185v64.96h-5.185z"/><circle fill="#FFD833" cx="901.245" cy="132.773" r="4.88"/><g><path fill="#D33131" d="M1015.826 182.045c4.557-.122 9.102-.08 13.621.384v-11.912c0-8.96 7.288-16.249 16.248-16.249s16.249 7.289 16.249 16.249v11.363c1.064-.01 2.128-.031 3.192-.035a1.841 1.841 0 0 1 1.293-.46c4.993.105 9.97.464 14.953.734.816.03 1.633.072 2.449.1v-11.702c0-21.028-17.107-38.134-38.136-38.134-21.027 0-38.133 17.106-38.133 38.134v10.935c2.753.218 5.509.412 8.264.593z"/></g><g fill="#E8E8E8"><path d="M1007.562 179.346h21.885v19.025h-21.885zM1061.944 179.346h21.887v19.025h-21.887z"/></g><g fill="#E8E8E8"><path d="M1007.562 179.346h21.885v19.025h-21.885zM1061.944 179.346h21.887v19.025h-21.887z"/></g><path fill="#844B3E" d="M59.711 260.01l5.508-13.082h-4.166l-13.6 13.082H27.74v.015c-6.237.16-11.274 12.531-11.274 27.784s5.037 27.623 11.274 27.784v.101h56.114V260.01H59.711z"/><path fill="#6D3B32" d="M39.257 289.486l34.189 3.017-.717-6.818z"/><ellipse fill="#EAC478" cx="83.801" cy="287.852" rx="11.413" ry="27.842"/><ellipse fill="#DBB167" cx="83.801" cy="287.852" rx="7.197" ry="17.556"/><path fill="#55962A" d="M52.96 251.753l.032.05.019-.048c.017-.001.035.002.051.002l-.032-.05c1.275-2.678.916-6.443-1.219-9.703s-5.442-5.093-8.407-4.995l-.032-.05-.019.048c-.017.001-.035-.002-.051-.002l.032.05c-1.275 2.678-.916 6.443 1.219 9.703 2.135 3.26 5.443 5.093 8.407 4.995z"/><path fill="#6D3B32" d="M17.852 274.526l31.192-.325-29.755-4.66a41.821 41.821 0 0 0-1.437 4.985zM20.327 308.621l25.128-2.482-26.734-1.782a33.073 33.073 0 0 0 1.606 4.264z"/><path fill="#FFF" d="M136.81 253.186h61.851v4.669H136.81zM136.81 270.692h61.851v5.832H136.81zM136.81 288.195h61.851v5.834H136.81z"/><path fill="#844B3E" d="M210.597 304.533h-4.934v-60.894c0-2.463-2.208-4.457-4.669-4.457s-4.667 1.994-4.667 4.457v60.894h-58.351v-60.894c0-2.463-1.623-4.457-4.084-4.457-2.461 0-4.085 1.994-4.085 4.457v60.894h-5.286c-2.384 0-4.317 1.701-4.317 4.083 0 2.384 1.933 4.087 4.317 4.087h86.076c2.384 0 4.318-1.703 4.318-4.087 0-2.382-1.934-4.083-4.318-4.083z"/><path fill="#4949DB" d="M147.313 259.046a3.475 3.475 0 0 1-3.475 3.476h-.053a3.476 3.476 0 0 1-3.475-3.476v-5.887a3.477 3.477 0 0 1 3.475-3.476h.053a3.477 3.477 0 0 1 3.475 3.476v5.887zM156.648 259.046a3.475 3.475 0 0 1-3.473 3.476h-.053a3.475 3.475 0 0 1-3.475-3.476v-5.887a3.477 3.477 0 0 1 3.475-3.476h.053a3.476 3.476 0 0 1 3.473 3.476v5.887zM193.992 259.046a3.475 3.475 0 0 1-3.473 3.476h-.053a3.475 3.475 0 0 1-3.475-3.476v-5.887a3.477 3.477 0 0 1 3.475-3.476h.053a3.476 3.476 0 0 1 3.473 3.476v5.887zM165.984 259.046a3.474 3.474 0 0 1-3.473 3.476h-.053a3.476 3.476 0 0 1-3.476-3.476v-5.887a3.477 3.477 0 0 1 3.476-3.476h.053a3.475 3.475 0 0 1 3.473 3.476v5.887zM193.992 276.554a3.472 3.472 0 0 1-3.473 3.471h-.053a3.472 3.472 0 0 1-3.475-3.471v-5.892a3.476 3.476 0 0 1 3.475-3.473h.053a3.475 3.475 0 0 1 3.473 3.473v5.892zM147.313 276.554a3.472 3.472 0 0 1-3.475 3.471h-.053a3.473 3.473 0 0 1-3.475-3.471v-5.892a3.477 3.477 0 0 1 3.475-3.473h.053a3.476 3.476 0 0 1 3.475 3.473v5.892zM156.648 276.554a3.472 3.472 0 0 1-3.473 3.471h-.053a3.472 3.472 0 0 1-3.475-3.471v-5.892a3.476 3.476 0 0 1 3.475-3.473h.053a3.475 3.475 0 0 1 3.473 3.473v5.892zM184.656 276.554a3.472 3.472 0 0 1-3.473 3.471h-.053a3.473 3.473 0 0 1-3.476-3.471v-5.892a3.477 3.477 0 0 1 3.476-3.473h.053a3.475 3.475 0 0 1 3.473 3.473v5.892zM193.992 294.057a3.476 3.476 0 0 1-3.473 3.476h-.053a3.477 3.477 0 0 1-3.475-3.476v-5.89a3.475 3.475 0 0 1 3.475-3.474h.053a3.474 3.474 0 0 1 3.473 3.474v5.89zM184.656 294.057a3.476 3.476 0 0 1-3.473 3.476h-.053a3.478 3.478 0 0 1-3.476-3.476v-5.89a3.476 3.476 0 0 1 3.476-3.474h.053a3.474 3.474 0 0 1 3.473 3.474v5.89zM175.321 294.057a3.477 3.477 0 0 1-3.475 3.476h-.053a3.476 3.476 0 0 1-3.473-3.476v-5.89a3.475 3.475 0 0 1 3.473-3.474h.053a3.475 3.475 0 0 1 3.475 3.474v5.89zM165.984 294.057a3.475 3.475 0 0 1-3.473 3.476h-.053a3.478 3.478 0 0 1-3.476-3.476v-5.89a3.475 3.475 0 0 1 3.476-3.474h.053a3.473 3.473 0 0 1 3.473 3.474v5.89z"/><path fill="#FFE1E1" d="M293.702 306.594c-.74.175-1.426.622-1.883 1.493-.317.604-.528 1.223-.709 1.848-.031.036-.063.072-.093.11-.515.186 6.268 2.913 5.884 3.328-1.928.051-1.398-.846-.615 1.502l.072.218h-58.197c.002-.009-.002-.017 0-.026-.087.002-.168.026-.255.026-5.345 0-9.679-4.334-9.679-9.679v-2.971l-.033-.002v-4.556h68.293v6.846c-1.141.013-2.259.581-2.785 1.863z"/><path fill="#FFF" d="M285.523 297.884v7.528c0 5.346 4.334 9.679 9.679 9.679 5.346 0 9.679-4.334 9.679-9.679v-7.528M304.915 250.059v-.101 47.926h-59.017v-49.97c.023-.002.044-.012.067-.014v-2.498l.033-.002v-2.971c0-5.346 4.334-9.679 9.679-9.679.087 0 .169.023.255.026-.002-.009.002-.017 0-.026h48.565l-.022.067h.44v.033h9.727l-2.408.005c5.324.026 9.632 4.345 9.632 9.675v7.528h-16.951z"/><path fill="#FFE1E1" d="M305.009 232.851h7.226v.005c5.324.026 9.632 4.345 9.632 9.675v7.528h-16.951"/><path fill="#1CB0F6" d="M282.349 292.161l-7.957.099 9.977-14.082 5.251 3.721z"/><path fill="#1CB0F6" d="M288.684 292.161l7.956.099-9.977-14.082-5.251 3.721z"/><path fill="#FFF" d="M305.055 238.744c0-3.251 2.61-5.883 5.848-5.939h-9.231l3.383 5.939z"/><circle fill="#FFC200" cx="285.557" cy="276.925" r="9.574"/><path opacity=".2" fill="#685B5B" d="M295.197 248.21c0 .831-.674 1.505-1.505 1.505h-38.829a1.505 1.505 0 0 1 0-3.01h38.829c.831 0 1.505.674 1.505 1.505zM287.973 260.251c0 .831-.674 1.505-1.505 1.505h-31.605a1.505 1.505 0 0 1 0-3.01h31.605c.831 0 1.505.673 1.505 1.505zM266.301 272.291c0 .831-.674 1.505-1.505 1.505h-9.933a1.505 1.505 0 0 1 0-3.01h9.933c.831 0 1.505.673 1.505 1.505z"/><path fill="#FFF" d="M422.343 268.145c0-20.469-16.594-37.063-37.063-37.063-20.47 0-37.063 16.594-37.063 37.063 0 17.626 12.315 32.348 28.802 36.107v12.806c8.07 0 14.834-5.467 16.862-12.894 16.314-3.883 28.462-18.516 28.462-36.019zm-29.04-21.013h9.24v28.81h-9.24v-28.81zm-20.526 28.543l-.007.001v-9.799c2.522 0 4.573-2.052 4.573-4.573s-2.051-4.573-4.573-4.573v-9.799c7.926 0 14.372 6.448 14.372 14.372 0 4.131-1.762 7.85-4.563 10.475v4.357h-9.799l-.003-.461zm.076 7.308a4.859 4.859 0 1 1 9.718 0 4.859 4.859 0 0 1-9.718 0zm25.391 4.859a4.859 4.859 0 1 1 .002-9.718 4.859 4.859 0 0 1-.002 9.718zM514.644 281.76c3.382-.477 6.608-1.599 8.619-3.609 4.047-4.047 4.047-10.609 0-14.657-2.763-2.763-6.687-3.592-10.194-2.583v-4.871c0-12.708-10.302-23.01-23.01-23.01s-23.01 10.302-23.01 23.01v5.464c-3.551-1.091-7.56-.278-10.37 2.531-4.047 4.047-4.047 10.609 0 14.657 2.411 2.411 6.432 3.633 10.419 3.993.495 18.631 15.715 33.592 34.465 33.592 19.062 0 34.515-15.453 34.515-34.515h-21.434zm-14.723-30.904a5.479 5.479 0 0 1 5.479 5.479c0 .234-.04.456-.069.682h-10.82c-.029-.226-.069-.448-.069-.682a5.479 5.479 0 0 1 5.479-5.479zm-19.723 0a5.479 5.479 0 0 1 5.479 5.479c0 .234-.04.456-.069.682h-10.82c-.028-.226-.069-.448-.069-.682a5.479 5.479 0 0 1 5.479-5.479zm16.794 30.996a6.49 6.49 0 0 1-12.98 0v-8.26a6.49 6.49 0 0 1 12.98 0v8.26z"/><g fill="#1CB0F6"><path opacity=".3" d="M536.08 281.76h-21.112l-1.898.455v32.054c13.396-4.743 23.01-17.487 23.01-32.509zM517.589 281.132l-1.256.301c.427-.091.844-.187 1.256-.301z"/></g><path fill="#FFF" d="M632.427 229.667H605.17v47.701l-22.986 20.161c-5.63 5.629-5.63 14.757 0 20.386s14.757 5.629 20.386 0l25.586-22.441c2.66-2.66 4.018-6.104 4.164-9.587h.107v-56.22z"/><path fill="#C6C6C6" d="M620.109 290.079c0 3.578 1.408 6.807 3.663 9.239l4.384-3.845c2.66-2.66 4.018-6.104 4.164-9.587h.107v-9.303c-6.902.669-12.318 6.418-12.318 13.496zM582.466 297.28l-.283.248c-5.63 5.629-5.63 14.757 0 20.386 5.48 5.48 14.251 5.581 19.907.392l-19.624-21.026z"/><path fill="#D33131" d="M605.17 237.923h27.258v4.98H605.17zM605.17 247.358h27.258v4.98H605.17z"/><path fill="#FFF" d="M737.07 313.813a2.314 2.314 0 0 1-4.015 2.3l-7.194-12.568a2.31 2.31 0 0 1 .861-3.157 2.307 2.307 0 0 1 3.154.859l7.194 12.566zM693.413 313.62a2.313 2.313 0 0 0 3.994 2.332l7.306-12.501a2.315 2.315 0 0 0-.832-3.164 2.312 2.312 0 0 0-3.164.83l-7.304 12.503zM718.904 235.733l-6.567-.029a1.936 1.936 0 1 0-.019 3.872l1.939.009-.03 6.737 2.525.01.032-6.735 2.103.01a1.937 1.937 0 0 0 .017-3.874z"/><path fill="#4949DB" d="M751.288 279.459c-.089 19.905-16.294 35.969-36.199 35.878-19.905-.086-35.966-16.296-35.876-36.198.088-19.9 16.294-35.966 36.199-35.876 19.903.086 35.964 16.293 35.876 36.196z"/><path fill="#FFF" d="M744.874 279.431c-.074 16.362-13.397 29.563-29.754 29.491-16.36-.074-29.563-13.395-29.491-29.754.074-16.36 13.397-29.563 29.754-29.489 16.357.07 29.563 13.393 29.491 29.752z"/><g fill="#FFCE00"><path d="M683.459 235.138c-6.728 4.249-8.737 13.149-4.487 19.877l24.364-15.389c-4.25-6.728-13.148-8.738-19.877-4.488zM747.436 235.75c-6.728-4.25-15.627-2.24-19.877 4.488l24.365 15.389c4.249-6.728 2.24-15.627-4.488-19.877z"/></g><path fill="#4C4C4C" d="M719.758 277.152l14.256 3.114-14.256 3.113zM712.541 276.228l3.649-23.186 3.649 23.186z"/><circle fill="#4C4C4C" cx="715.776" cy="279.851" r="5.846"/><circle fill="#FFF" cx="715.776" cy="279.851" r="2.349"/><path fill="#FFF" d="M796.094 275.989h50.301v39.547h-50.301z"/><path opacity=".3" fill="#7AC70C" d="M796.094 275.989h50.301v39.547h-50.301z"/><path fill="#FFF" d="M865.604 275.424c0 15.913-12.9 28.813-28.813 28.813-15.913 0-28.813-12.9-28.813-28.813"/><path fill="#FFF" d="M787.074 239.267h31.073v45.762h-31.073z"/><path fill="#C6C6C6" d="M802.95 248.306c0 1.014 1.391 1.836 3.107 1.836h4.972c1.716 0 3.107-.822 3.107-1.836 0-1.014-1.391-1.836-3.107-1.836h-4.972c-1.716 0-3.107.822-3.107 1.836z"/><path fill="#FFF" d="M784.72 235.312h35.216v6.497H784.72zM865.039 270.34a2.26 2.26 0 0 1-2.26 2.26h-45.762a2.26 2.26 0 0 1 0-4.52h45.762a2.26 2.26 0 0 1 2.26 2.26zM825.209 292.373h23.446v23.163h-23.446z"/><path fill="#FFD3A4" d="M914.643 261.425c0-11.761 9.534-21.295 21.295-21.295 11.761 0 21.295 9.534 21.295 21.295"/><path opacity=".6" fill="#FFF" d="M914.8 264.371h41.249v53.034H914.8z"/><path opacity=".6" fill="#FFF" d="M929.164 304.719a3.13 3.13 0 0 1-6.26 0v-34.27a3.13 3.13 0 0 1 6.26 0v34.27z"/><circle fill="#FFD3A4" cx="935.938" cy="236.696" r="4.734"/><path fill="#4949DB" d="M910.013 260.32h51.192v9.207h-51.192z"/><path fill="#FFF" d="M919.22 289.783h32.041v23.202H919.22z"/><path fill="#231F20" d="M1074.823 290.1h-59.148l13.356-26.53h32.436z"/><path fill="#231F20" d="M1015.675 289.782h59.148v16.536h-59.148zM1083.824 256.045l.058-.086-3.159-2.142c-9.394-6.367-22.046-9.874-35.628-9.874-13.794 0-26.583 3.6-36.011 10.136l-3.136 2.174.051.073c-3.416 2.71-4.676 7.485-2.746 11.606l2.366 5.053 17.44-8.166-2.366-5.053c-.457-.977-1.087-1.808-1.794-2.546a51.288 51.288 0 0 1 7.516-2.924c1.221 5.018 5.721 8.767 11.109 8.767h14.977c5.403 0 9.917-3.77 11.122-8.81a51.151 51.151 0 0 1 8.084 3.176c-.719.744-1.358 1.586-1.821 2.576l-2.366 5.053 17.44 8.166 2.366-5.053c2.065-4.408.47-9.552-3.502-12.126zm-31.323 1.453h-14.977c-2.802 0-5.143-1.967-5.741-4.59a66.62 66.62 0 0 1 13.314-1.333c4.506 0 8.943.452 13.155 1.304-.588 2.638-2.939 4.619-5.751 4.619z"/><path fill="#544B4D" d="M1034.198 295.665h20.909v5.327h-20.909z"/><circle fill="#5E5E5E" cx="1045.13" cy="272.832" r="18.842"/><circle fill="#B7B7B7" cx="1045.13" cy="272.832" r="5.989"/><circle fill="#B7B7B7" cx="1045.13" cy="260.212" r="3.161"/><circle fill="#B7B7B7" cx="1045.13" cy="285.094" r="3.161"/><circle fill="#B7B7B7" cx="1032.689" cy="272.653" r="3.161"/><circle fill="#B7B7B7" cx="1057.57" cy="272.653" r="3.161"/><circle fill="#B7B7B7" cx="1035.806" cy="263.329" r="3.161"/><circle fill="#B7B7B7" cx="1054.453" cy="281.977" r="3.161"/><circle fill="#B7B7B7" cx="1035.806" cy="281.977" r="3.161"/><circle fill="#B7B7B7" cx="1054.453" cy="263.329" r="3.161"/><g><path fill="#231F20" d="M1027.771 306.227h-16.723c-4.675 0-8.48-3.804-8.48-8.48v-36.744h1.886v36.744a6.602 6.602 0 0 0 6.594 6.596h16.723v1.884z"/></g><path fill="#724221" d="M29.963 394.344l37.934-37.935 24.754 24.754-37.934 37.935z"/><circle fill="#C17B4C" cx="53.452" cy="367.117" r="7.577"/><path fill="#C17B4C" d="M63.969 373.537l-17.206-17.206-27.406 27.406 17.842 17.842 20.414 20.414a6.593 6.593 0 0 0 9.323 0c2.274-2.274 2.532-5.792.789-8.357 2.579 1.885 6.205 1.684 8.534-.644 2.174-2.174 2.49-5.481.991-8.01 2.529 1.499 5.836 1.183 8.01-.991a6.593 6.593 0 0 0 0-9.323l-20.414-20.414a6.5 6.5 0 0 0-.877-.717z"/><path fill="#724221" d="M40.628 392.256a6.138 6.138 0 0 1 0 8.68l-3.215 3.215a6.138 6.138 0 1 1-8.68-8.68l3.215-3.215a6.138 6.138 0 0 1 8.68 0zM67.632 365.252a6.138 6.138 0 0 1 0 8.68l-3.215 3.215a6.138 6.138 0 1 1-8.68-8.68l3.215-3.215a6.138 6.138 0 0 1 8.68 0z"/><path fill="#724221" d="M48.933 400.561a6.138 6.138 0 0 1 0 8.68l-3.215 3.215a6.138 6.138 0 1 1-8.68-8.68l3.215-3.215a6.138 6.138 0 0 1 8.68 0z"/><path fill="#724221" d="M57.077 408.706a6.138 6.138 0 0 1 0 8.68l-3.215 3.215a6.138 6.138 0 1 1-8.68-8.68l3.215-3.215a6.138 6.138 0 0 1 8.68 0z"/><path fill="#FFF" d="M8.972 375.645l29.631-29.63 9.43 9.429-29.63 29.631zM75.97 346.064l27.212 27.213-9.43 9.43-27.212-27.213z"/><circle fill="#939393" cx="94.673" cy="374.24" r="2.425"/><circle fill="#939393" cx="19.657" cy="374.392" r="2.425"/><path fill="#D33131" d="M148.292 389.174c-12.078 0-21.869 9.791-21.869 21.869h21.869v-21.869z"/><path fill="#FFB103" d="M177.498 401.81v15.299c0 6.652-9.114 12.736-12.044 13.997-3.296-1.79-12.034-7.303-12.044-13.997V401.81"/><path fill="#FFE000" d="M171.437 406.706v7.6c0 3.304-4.528 6.327-5.983 6.953-1.637-.889-5.978-3.628-5.983-6.953v-7.6"/><path fill="#D33131" d="M182.32 389.225c12.078 0 21.869 9.791 21.869 21.869H182.32v-21.869z"/><path fill="#FFF" d="M142.959 411.094v-43.298c0-12.367 16.945-23.678 22.392-26.023 6.127 3.328 22.373 13.578 22.392 26.023v43.298"/><circle opacity=".4" fill="#1CB0F6" cx="165.536" cy="371.071" r="8.738"/><path fill="#D33131" d="M150.777 352.364h29.068c-5.039-5.027-11.212-8.808-14.494-10.591-2.975 1.282-9.373 5.249-14.574 10.591zM163.546 390.979h4.023v20.219h-4.023z"/><g><path fill="#FF9797" d="M275.355 423.941a3.235 3.235 0 0 1-2.054-.74c-19.552-15.263-28.878-23.529-34.407-30.486-6.207-7.812-7.454-13.982-7.471-21.959a3.656 3.656 0 0 1-.007-.234c0-13.395 10.897-24.293 24.292-24.293 7.836 0 15.142 3.863 19.654 10.033 4.512-6.17 11.821-10.033 19.655-10.033 13.395 0 24.295 10.898 24.295 24.293 0 .076-.002.152-.009.231-.016 7.974-1.265 14.147-7.479 21.961-5.528 6.959-14.866 15.228-34.436 30.505a3.23 3.23 0 0 1-2.033.722z"/></g><path opacity=".7" fill="#D15050" d="M251.09 374.679a6.92 6.92 0 1 1 13.84 0M286.319 374.679a6.92 6.92 0 1 1 13.84 0"/><path fill="#C44545" d="M291.98 386.002c0 8.686-7.041 15.727-15.727 15.727s-15.727-7.041-15.727-15.727"/><path fill="#F76161" d="M286.802 397.643c-2.789-2.535-6.482-4.091-10.549-4.091-4.067 0-7.76 1.556-10.549 4.091 2.791 2.531 6.484 4.087 10.549 4.087 4.065-.001 7.758-1.556 10.549-4.087z"/><path fill="#FFF" d="M368.907 351.267h32.097v73.77h-32.097z"/><path fill="#444" d="M401.04 344.279l-11.583 4.5a5.162 5.162 0 0 0-4.373-2.429c-2.054 0-3.813 1.206-4.65 2.94l-11.565-4.493v12.727l11.316-4.396c.677 2.07 2.602 3.576 4.899 3.576 2.434 0 4.46-1.685 5.014-3.948l10.941 4.251v-12.728z"/><circle fill="#444" cx="385.344" cy="366.798" r="2.491"/><circle fill="#444" cx="385.344" cy="387.506" r="2.491"/><circle fill="#444" cx="385.344" cy="408.213" r="2.491"/><path fill="#444" d="M352.292 369.462l4.842 4.843-5.325 5.324 17.052 45.43.068-67.644zM413.726 374.305l4.735-4.735-17.5-12.673.068 67.645 17.175-45.76z"/><path fill="#FFF" d="M513.502 387.03h14.514v5.017h-14.514z"/><path fill="#8C5A38" d="M529.718 420.331v-18.416h-1.006c-7.609 0-13.777-6.168-13.777-13.777h14.783v-5.946h7.795v-3.511c0-16.171-13.109-29.28-29.28-29.28s-29.28 13.109-29.28 29.28v41.158"/><path fill="#FFF" d="M487.699 387.03h14.514v5.017h-14.514z"/><path fill="#FFBB8D" d="M503.915 420.331v-18.416h-1.006c-7.609 0-13.777-6.168-13.777-13.777h14.783v-5.946h7.795v-3.511c0-16.171-13.109-29.28-29.28-29.28s-29.28 13.109-29.28 29.28v41.158"/><path fill="#C17B4C" d="M489.67 375.025a5.376 5.376 0 0 1 10.752 0"/><path fill="#6D4429" d="M516.906 375.025a5.376 5.376 0 0 1 10.752 0"/><circle fill="#FFF" cx="581.494" cy="393.767" r="7.62"/><circle fill="#FFF" cx="605.965" cy="385.173" r="16.265"/><circle fill="#4C4C4C" cx="581.494" cy="393.767" r="5.861"/><circle fill="#757575" cx="581.494" cy="393.767" r="1.866"/><circle fill="#FFF" cx="630.26" cy="393.767" r="7.62"/><circle fill="#4C4C4C" cx="630.26" cy="393.767" r="5.861"/><circle fill="#757575" cx="630.26" cy="393.767" r="1.866"/><path opacity=".3" fill="#1CB0F6" d="M589.933 387.81c1.263 7.726 7.95 13.628 16.032 13.628s14.769-5.902 16.032-13.628h-32.064z"/><g fill="#106282"><path d="M606.918 383.975h8.48l-1.934-3.869h-6.546zM604.811 380.106h-6.821l-1.934 3.869h8.755z"/></g><path fill="#FFF" d="M593.01 381.183l-36.299 4.566v2.055h5.776c.171 1.091 1.075 1.94 2.214 1.94s2.043-.849 2.214-1.94h24.725l1.37-6.621zM655.106 385.749l-36.299-4.566 1.37 6.62h25.105c.171 1.091 1.075 1.94 2.214 1.94s2.043-.849 2.214-1.94h5.396v-2.054zM604.289 372.166l1.332-17.655h1.166l.666 17.321zM613.785 372.105l17.655 1.333v1.166l-17.322.666zM598.565 372.105l-17.654 1.333v1.166l17.321.666zM754.548 393.35v-11.026c0-21.527-17.451-38.979-38.979-38.979-21.527 0-38.979 17.451-38.979 38.979v19.338h.032c.239 6.621 5.668 11.92 12.348 11.92 3.467 0 6.596-1.43 8.842-3.728v12.842a4.948 4.948 0 1 0 9.896 0v-4.514h2.754v4.514a4.948 4.948 0 1 0 9.896 0v-4.514h2.754v4.514a4.948 4.948 0 1 0 9.896 0v-13.251c2.265 2.533 5.548 4.137 9.214 4.137 6.832 0 12.37-5.538 12.37-12.37v-6.978c.001-.299-.023-.592-.044-.884zm-60.434 8.722c-5.354 0-9.694-4.34-9.694-9.694s4.34-9.694 9.694-9.694c5.354 0 9.694 4.34 9.694 9.694s-4.34 9.694-9.694 9.694zm15.336 4.042l6.17-8.243 6.17 8.243h-12.34zm27.724-4.042c-5.354 0-9.694-4.34-9.694-9.694s4.34-9.694 9.694-9.694c5.354 0 9.694 4.34 9.694 9.694s-4.34 9.694-9.694 9.694z"/><path fill="#D1976B" d="M857.869 417.605c-5.566 5.582-14.604 5.596-20.186.03l-45.486-45.353c-5.582-5.566-5.596-14.604-.029-20.186 5.566-5.582 14.604-5.596 20.186-.03l45.486 45.353c5.582 5.565 5.595 14.603.029 20.186z"/><path fill="#E8AE82" d="M825.787 364.165l20.046 19.99-21.67 21.73-20.046-19.99z"/><path fill="#C18156" d="M811.443 361.739a2.141 2.141 0 0 0 3.032 3.024 2.141 2.141 0 0 0-3.032-3.024zM801.868 371.342a2.141 2.141 0 0 0 3.032 3.024 2.141 2.141 0 0 0-.004-3.028 2.14 2.14 0 0 0-3.028.004zM798.821 358.225a2.141 2.141 0 0 0 3.032 3.024 2.141 2.141 0 0 0-3.032-3.024zM837.246 406.616a2.141 2.141 0 0 0-3.032-3.024 2.141 2.141 0 0 0 .004 3.028 2.14 2.14 0 0 0 3.028-.004zM846.821 397.014a2.141 2.141 0 0 0-3.032-3.024 2.141 2.141 0 0 0 3.032 3.024zM849.868 410.131a2.141 2.141 0 0 0-3.032-3.024 2.141 2.141 0 0 0 3.032 3.024z"/><path fill="#D1976B" d="M857.869 417.605c-5.566 5.582-14.604 5.596-20.186.03l-45.486-45.353c-5.582-5.566-5.596-14.604-.029-20.186 5.566-5.582 14.604-5.596 20.186-.03l45.486 45.353c5.582 5.565 5.595 14.603.029 20.186z"/><path fill="#E8AE82" d="M825.787 364.165l20.046 19.99-21.67 21.73-20.046-19.99z"/><path fill="#D1976B" d="M857.773 351.999c5.583 5.566 5.596 14.604.03 20.186l-45.353 45.486c-5.566 5.582-14.604 5.596-20.186.03-5.583-5.566-5.596-14.604-.03-20.186l45.353-45.486c5.566-5.583 14.604-5.596 20.186-.03z"/><path fill="#C18156" d="M811.443 361.739a2.141 2.141 0 0 0 3.032 3.024 2.141 2.141 0 0 0-3.032-3.024zM801.908 398.425a2.141 2.141 0 0 0 3.024-3.032 2.141 2.141 0 0 0-3.028.004 2.14 2.14 0 0 0 .004 3.028zM811.51 408a2.141 2.141 0 0 0 3.024-3.032A2.141 2.141 0 0 0 811.51 408zM798.393 411.047a2.141 2.141 0 0 0 3.024-3.032 2.141 2.141 0 0 0-3.024 3.032zM801.868 371.342a2.141 2.141 0 0 0 3.032 3.024 2.141 2.141 0 0 0-.004-3.028 2.14 2.14 0 0 0-3.028.004zM798.821 358.225a2.141 2.141 0 0 0 3.032 3.024 2.141 2.141 0 0 0-3.032-3.024zM837.246 406.616a2.141 2.141 0 0 0-3.032-3.024 2.141 2.141 0 0 0 .004 3.028 2.14 2.14 0 0 0 3.028-.004z"/><path fill="#D1976B" d="M857.773 351.999c5.583 5.566 5.596 14.604.03 20.186l-45.353 45.486c-5.566 5.582-14.604 5.596-20.186.03-5.583-5.566-5.596-14.604-.03-20.186l45.353-45.486c5.566-5.583 14.604-5.596 20.186-.03z"/><path fill="#C18156" d="M801.908 398.425a2.141 2.141 0 0 0 3.024-3.032 2.141 2.141 0 0 0-3.028.004 2.14 2.14 0 0 0 .004 3.028zM811.51 408a2.141 2.141 0 0 0 3.024-3.032A2.141 2.141 0 0 0 811.51 408zM798.393 411.047a2.141 2.141 0 0 0 3.024-3.032 2.141 2.141 0 0 0-3.024 3.032zM846.785 372.622a2.141 2.141 0 0 0-3.024 3.032 2.141 2.141 0 0 0 3.024-3.032zM837.182 363.047a2.141 2.141 0 0 0-3.024 3.032 2.141 2.141 0 0 0 3.028-.004 2.14 2.14 0 0 0-.004-3.028zM850.299 360a2.141 2.141 0 0 0-3.024 3.032 2.14 2.14 0 1 0 3.024-3.032zM846.821 397.014a2.141 2.141 0 0 0-3.032-3.024 2.141 2.141 0 0 0 3.032 3.024zM849.868 410.131a2.141 2.141 0 0 0-3.032-3.024 2.141 2.141 0 0 0 3.032 3.024z"/><path fill="#E8AE82" d="M805.219 384.963l19.99-20.046 20.107 20.051-19.99 20.046z"/><path fill="#C18156" d="M846.785 372.622a2.141 2.141 0 0 0-3.024 3.032 2.141 2.141 0 0 0 3.024-3.032zM837.182 363.047a2.141 2.141 0 0 0-3.024 3.032 2.141 2.141 0 0 0 3.028-.004 2.14 2.14 0 0 0-.004-3.028zM850.299 360a2.141 2.141 0 0 0-3.024 3.032 2.14 2.14 0 1 0 3.024-3.032z"/><path fill="#6B8988" d="M890.621 422.485l44.794-73.212 44.795 73.212z"/><path fill="#A3AEAF" d="M980.21 422.485l-44.795-73.212-3.323 25.83 13.343.857-28.848 46.525z"/><path fill="#ABD3D6" d="M945.278 375.982l8.169 2.762-18.032-29.471-16.032 26.203.132 9.229z"/><path fill="#FFF" d="M945.176 375.982l8.271 2.762-18.032-29.471-3.323 25.83z"/><path fill="#6B8988" d="M943.891 422.504l13.017-19.035v19.001z"/><path fill="#E8E8E8" d="M1086.463 391.333v-10.391l-8.847-2.437c-.829-3.693-2.306-7.162-4.228-10.29l4.377-7.812-7.358-7.347-7.69 4.33c-3.182-2.042-6.735-3.654-10.522-4.546l-2.342-8.467h-10.391l-2.299 8.338c-3.905.847-7.559 2.41-10.834 4.476l-7.406-4.153-7.345 7.356 4.158 7.388c-2.089 3.286-3.562 6.954-4.424 10.881l-8.105 2.283v10.391l8.196 2.304c.888 3.851 2.396 7.446 4.474 10.673l-4.284 7.562 7.338 7.347 7.69-4.339c3.173 1.956 6.69 3.349 10.438 4.176l2.403 8.573h10.391l2.439-8.704a33.593 33.593 0 0 0 10.129-4.226l7.97 4.508 7.349-7.34-4.51-7.995c1.911-3.067 3.446-6.462 4.3-10.08l8.933-2.459zm-42.067 4.63c-5.524 0-9.998-4.476-9.998-10.001a9.996 9.996 0 0 1 9.998-9.998c5.522 0 9.996 4.476 9.996 9.998 0 5.524-4.474 10.001-9.996 10.001z"/><path opacity=".6" fill="#FFF" d="M1074.398 415.212l-22.574-22.573a9.959 9.959 0 0 1-7.428 3.324c-5.524 0-9.998-4.476-9.998-10.001a9.957 9.957 0 0 1 3.322-7.428l-22.14-22.138-4.002 4.004 4.158 7.381c-1.337 2.1-2.419 4.375-3.275 6.757l43.365 43.361c2.319-.829 4.537-1.881 6.595-3.175l7.97 4.494 4.007-4.006zM1075.771 408.38l-2.541-4.506a33.795 33.795 0 0 0 3.187-6.706l-43.221-43.22c-2.421.847-4.734 1.935-6.868 3.281l-3.918-2.207 20.995 20.993c.325-.032.657-.052.991-.052 5.522 0 9.996 4.476 9.996 9.998 0 .334-.016.664-.047.989l21.426 21.43z"/><path fill="#E29256" d="M21.982 474.964h32.991v47.132H21.982z"/><path fill="#B5764B" d="M54.861 474.964H21.683l-12.6-7.541h33.178zM67.487 467.423l-12.6 7.541h.087v47.132h32.993v-47.132h.1l12.6-7.541h-33.18zm8.836 21.68h-7.277c-1.432 0-2.591-.926-2.591-2.355 0-1.432 1.159-2.359 2.591-2.359h7.277c1.432 0 2.593.927 2.593 2.359-.001 1.429-1.162 2.355-2.593 2.355z"/><path opacity=".2" fill="#FFF" d="M70.056 512.669h5.658v9.427h-5.658z"/><path fill="#ED9869" d="M196.275 491.632h-21.479c-4.095-.047-7.401-3.24-7.697-7.271v-10.259c0-8.337-6.758-15.096-15.095-15.096v25.522c-.376 3.95-3.643 7.057-7.681 7.103h-15.612v32.356h17.596c1.023 4.294 4.86 7.496 9.467 7.496h33.277c3.33 0 6.264-1.675 8.025-4.222h-.801v-35.629z"/><g fill="#E58555"><path d="M178.374 504.741h18.123a6.577 6.577 0 0 0 0-13.154h-18.123a6.577 6.577 0 0 0 0 13.154zM196.497 504.945h-18.123a6.577 6.577 0 0 0 0 13.154h18.123a6.577 6.577 0 0 0 0-13.154zM196.497 518.302h-18.123a6.577 6.577 0 0 0 0 13.154h18.123a6.577 6.577 0 0 0 0-13.154z"/></g><path fill="#FFF" d="M127.274 489.822h17.721v34.92h-17.721z"/><path fill="#3F3F3F" d="M264.963 467.822a1.98 1.98 0 1 1 2.799-2.799l13.995 13.995a1.98 1.98 0 1 1-2.799 2.799l-13.995-13.995z"/><path fill="#3F3F3F" d="M284.313 465.217a1.98 1.98 0 1 1 2.799 2.799l-13.995 13.995a1.98 1.98 0 1 1-2.799-2.799l13.995-13.995z"/><circle fill="#3F3F3F" cx="276.028" cy="476.533" r="10.39"/><path fill="#FFD833" d="M256.275 495.796c0-10.84 8.787-19.627 19.627-19.627 10.84 0 19.627 8.787 19.627 19.627 0 10.84-11.405 23.473-20.025 28.91-8.752-5.57-19.229-18.071-19.229-28.91z"/><path fill="#3F3F3F" d="M256.275 495.796c0 3.083.868 6.299 2.283 9.454h34.519c1.513-3.159 2.452-6.378 2.452-9.454 0-2.589-.514-5.055-1.425-7.319H257.7a19.547 19.547 0 0 0-1.425 7.319z"/><path opacity=".7" fill="#FFF" d="M259.589 510.382c-7.149 7.149-18.741 7.149-25.89 0-7.149-7.149-7.149-18.741 0-25.89 7.149-7.149 23.004-7.959 32.275-5.86 2.099 9.446.764 24.601-6.385 31.75zM292.559 510.382c7.149 7.149 18.741 7.149 25.89 0 7.149-7.149 7.149-18.741 0-25.89s-23.004-7.959-32.275-5.86c-2.099 9.446-.764 24.601 6.385 31.75z"/><path fill="#FFBB8D" d="M425.189 460.244H403.46c-.475-2.678-2.801-4.716-5.616-4.716-2.814 0-5.141 2.038-5.616 4.716h-18.966v29.37h7.198c.158.015.31.048.471.048h26.678a4.954 4.954 0 0 0 4.954-4.954c0-2.203-1.447-4.048-3.436-4.692h.892a4.974 4.974 0 0 0 4.974-4.974c0-2.454-1.781-4.48-4.118-4.888h14.313a4.955 4.955 0 1 0 .001-9.91z"/><path fill="#FFF" d="M354.42 459.386h19.986v31.156H354.42z"/><path fill="#663819" d="M397.814 499.447h-7.198c-.158-.015-.31-.048-.472-.048h-26.678a4.954 4.954 0 0 0-4.954 4.955c0 2.203 1.448 4.049 3.436 4.692h-.892a4.967 4.967 0 1 0-.857 9.862h-14.311a4.954 4.954 0 0 0 0 9.909h21.729c.475 2.678 2.801 4.716 5.616 4.716s5.141-2.038 5.616-4.716h18.966v-29.37z"/><path fill="#FFF" d="M396.671 498.504h17.134v31.156h-17.134z"/><path fill="#FFB103" d="M534.912 514.545h-1.109v-20.23h.016V470.85L514.477 489l-19.343-18.15-19.217 18.002-19.218-18.002v23.464h.013v20.23h-1.01a1.97 1.97 0 0 0 0 3.94h79.21a1.97 1.97 0 0 0 0-3.939z"/><path fill="#FFCE00" d="M484.469 480.84l-8.553 8.012-8.392-7.861v33.653h16.945z"/><path fill="#FFCE00" d="M464.174 514.348h17.881v3.99h-17.881z"/><path fill="#9CBC13" d="M647.101 481.36h-6.176c-.039-10.906-8.888-19.735-19.803-19.735v8.98c-5.858-3.917-12.879-6.229-20.461-6.229-20.344 0-36.84 16.43-36.97 36.743h-.001v.017c0 .075-.011.147-.011.222h.011v7.015h-.009c0 11.924 9.665 21.589 21.589 21.589s21.589-9.666 21.589-21.589h-12.434a9.156 9.156 0 0 1-18.311 0h-.014v-7.015h3.956v7.058a5.344 5.344 0 1 0 10.686 0v-7.058h19.72v7.058a5.344 5.344 0 1 0 10.686 0v-7.058h5.787c.053 0 .104.008.157.008s.105-.008.157-.008h1.254c-.002-.021.007-.042.005-.064 10.388-.729 18.593-9.363 18.593-19.934z"/><path fill="#70A30D" d="M585.198 485.735a4.097 4.097 0 0 0 4.098-4.097v-15.464a36.772 36.772 0 0 0-8.195 3.84v11.624a4.096 4.096 0 0 0 4.097 4.097zM598.964 485.735a4.097 4.097 0 0 0 4.097-4.097v-17.152c-.796-.051-1.59-.11-2.399-.11-1.977 0-3.902.2-5.795.498v16.764a4.097 4.097 0 0 0 4.097 4.097zM612.73 485.735a4.097 4.097 0 0 0 4.098-4.097v-13.543c-2.574-1.256-5.327-2.189-8.194-2.821v16.363a4.097 4.097 0 0 0 4.096 4.098z"/><circle fill="#70A30D" cx="629.205" cy="485.312" r="6.268"/><circle fill="#231F20" cx="629.205" cy="485.312" r="2.078"/><path fill="#FFF" d="M732.731 486.51c0-16.364-13.266-29.63-29.63-29.63-16.364 0-29.63 13.266-29.63 29.63 0 13.993 9.712 25.69 22.754 28.795 1.622 5.937 7.029 10.307 13.48 10.307v-10.238c13.181-3.004 23.026-14.774 23.026-28.864z"/><path opacity=".5" fill="#FFF" d="M756.502 499.293c0-14.309-11.599-25.908-25.908-25.908-14.309 0-25.908 11.599-25.908 25.908 0 12.235 8.492 22.463 19.896 25.178 1.418 5.191 6.146 9.013 11.787 9.013v-8.952c11.525-2.627 20.133-12.918 20.133-25.239z"/><path fill="#7C1E1E" d="M863.5 475.867c0 21.211-17.195 38.407-38.407 38.407s-38.407-17.195-38.407-38.407"/><path fill="#D33131" d="M851.375 503.821c-6.873-6.464-16.101-10.452-26.281-10.452s-19.408 3.988-26.281 10.452c6.873 6.464 16.101 10.452 26.281 10.452 10.179 0 19.408-3.988 26.281-10.452z"/><path fill="#FFF" d="M793.007 475.867h65.308v10.858h-65.308z"/><path fill="#09A0CE" d="M962.446 530.18H894.66l12.653-28.382h67.786z"/><path fill="#FFF" d="M976.517 504.412a11.954 11.954 0 0 0-9.279-8.516c3.708-3.976 5.994-9.295 5.994-15.16 0-12.292-9.965-22.257-22.257-22.257-12.292 0-22.257 9.965-22.257 22.257 0 1.307.135 2.579.351 3.824-3.168.757-5.672 3.137-6.642 6.217a14.148 14.148 0 0 0-3.605-.481c-7.817 0-14.154 6.337-14.154 14.153h10.307v.037h49.593v-.075h11.949z"/><circle opacity=".6" fill="#FFF" cx="1021.356" cy="495.823" r="14.867"/><circle opacity=".6" fill="#FFF" cx="1069.175" cy="495.823" r="14.867"/><path opacity=".6" fill="#FFF" d="M1010.918 506.403l21.018-21.018a14.819 14.819 0 0 0-10.58-4.429c-8.211 0-14.867 6.656-14.867 14.867 0 4.141 1.697 7.884 4.429 10.58zM1079.521 485.159a14.807 14.807 0 0 0-10.346-4.203c-8.211 0-14.867 6.656-14.867 14.867a14.81 14.81 0 0 0 4.203 10.346l21.01-21.01z"/><path fill="#231F20" d="M1091.552 493.983h-4.564c-.995-8.867-8.532-15.786-17.66-15.786-8.145 0-15.011 5.513-17.106 12.999a10.704 10.704 0 0 0-6.843-2.499c-2.538 0-4.911.882-6.781 2.425-2.12-7.448-8.97-12.925-17.089-12.925-9.129 0-16.664 6.919-17.659 15.786h-3.798v4.598h3.892c1.267 8.569 8.649 15.173 17.565 15.173 9.803 0 17.779-7.975 17.779-17.778v-.01c1.239-2.218 3.531-3.591 6.091-3.591 2.589 0 4.979 1.469 6.179 3.751.081 9.734 8.017 17.628 17.77 17.628 8.916 0 16.3-6.603 17.567-15.173h4.658v-4.598zm-70.043 16.093c-7.775 0-14.099-6.324-14.099-14.099s6.324-14.101 14.099-14.101 14.101 6.326 14.101 14.101c0 7.775-6.326 14.099-14.101 14.099zm47.819 0c-7.775 0-14.099-6.324-14.099-14.099s6.324-14.101 14.099-14.101 14.101 6.326 14.101 14.101c0 7.775-6.326 14.099-14.101 14.099z"/><path fill="#C17B4C" d="M146.536 628.652a3.961 3.961 0 0 1-.861-5.536l13.141-17.982a3.961 3.961 0 1 1 6.397 4.675l-13.141 17.982a3.962 3.962 0 0 1-5.536.861z"/><path fill="#E29256" d="M172.487 654.063a3.962 3.962 0 0 1-3.962-3.962v-22.272a3.962 3.962 0 0 1 7.924 0v22.272a3.962 3.962 0 0 1-3.962 3.962zM127.658 609.992a3.962 3.962 0 0 1 5.537-.861l17.982 13.141a3.961 3.961 0 1 1-4.675 6.397l-17.982-13.141a3.96 3.96 0 0 1-.862-5.536zM200.576 600.217a3.545 3.545 0 0 0-4.97.661l-3.483 5.261-14.255-10.328a4.38 4.38 0 0 0-5.138 7.092l16.639 12.054a4.364 4.364 0 0 0 3.271.775 3.52 3.52 0 0 0 2.52-1.366l.057-.086c.088-.101.187-.189.267-.3.182-.251.331-.515.452-.786l5.302-8.007a3.546 3.546 0 0 0-.662-4.97z"/><path fill="#FFF" d="M188.565 654.732a5.745 5.745 0 0 0-5.745-5.745l-14.31-.02v5.736c0 .01-.003.019-.003.029h20.058z"/><path fill="#41C6E5" d="M163.649 629.961l16.925-25.137a9.313 9.313 0 0 0-2.273-12.973 9.313 9.313 0 0 0-12.973 2.273l-17.044 24.305"/><path fill="#FFF" d="M117.869 622.95a5.744 5.744 0 0 0 7.992-1.459l8.154-11.76-4.718-3.262-.022-.019-11.406 16.5z"/><path fill="#E29256" d="M173.676 594.163l-19.383-10.97a3.919 3.919 0 0 0-1.846-.495c-.108-.009-.215-.006-.323-.006-.043.002-.085.001-.128.005a3.52 3.52 0 0 0-2.606 1.306l-.046.049-.016.017-.058.088a3.86 3.86 0 0 0-.376.533c-.02.035-.029.073-.048.108l-5.596 8.45a3.545 3.545 0 1 0 5.631 4.309l4.008-6.053 16.883 9.555a3.96 3.96 0 0 0 5.399-1.497 3.96 3.96 0 0 0-1.495-5.399z"/><path fill="#FFF" d="M153.967 610.025l20.541 14.07-6.544 9.554-20.541-14.07z"/><path fill="#77402F" d="M174.308 572.455a8.094 8.094 0 0 1-14.703-6.771"/><path fill="#E29256" d="M192.28 580.628l6.819 4.771a13.936 13.936 0 0 0 2.429-7.881c0-7.736-6.271-14.008-14.008-14.008-7.736 0-14.008 6.271-14.008 14.008a13.94 13.94 0 0 0 3.344 9.07l-3.477 5.017 6.491 4.499 3.591-5.181a13.92 13.92 0 0 0 10.071-.769 7.116 7.116 0 0 1-1.252-9.526z"/><path fill="#CECECE" d="M153.954 610.101l-6.507 9.5 9.159 6.273c-4.888-3.723-6.091-10.635-2.589-15.77a.828.828 0 0 0-.063-.003z"/><path fill="#FFF" d="M194.188 576.814a2.01 2.01 0 0 1 3.495 1.985"/><path fill="#77402F" d="M185.751 571.512a6.22 6.22 0 0 1 8.534-2.136l6.608 3.962c-1.779-5.694-7.092-9.827-13.372-9.827-7.736 0-14.008 6.271-14.008 14.008 0 3.416 1.225 6.543 3.257 8.974l8.981-14.981z"/><circle fill="#E29256" cx="182.414" cy="576.44" r="3.629"/><path fill="#915126" d="M68.426 571.861a8.146 8.146 0 1 1-14.799-6.815"/><path fill="#FFAD76" d="M86.517 580.089l6.864 4.802a14.028 14.028 0 0 0 2.445-7.933c0-7.787-6.313-14.1-14.1-14.1s-14.1 6.313-14.1 14.1c0 3.485 1.271 6.669 3.366 9.13l-3.5 5.05 6.534 4.529 3.615-5.215a14.006 14.006 0 0 0 10.138-.774 7.162 7.162 0 0 1-1.262-9.589z"/><path fill="#FFF" d="M88.438 576.249a2.023 2.023 0 0 1 3.518 1.998"/><path fill="#915126" d="M79.945 570.912a6.262 6.262 0 0 1 8.59-2.151l6.651 3.988c-1.79-5.732-7.139-9.892-13.461-9.892-7.787 0-14.1 6.313-14.1 14.1 0 3.438 1.234 6.587 3.278 9.034l9.042-15.079z"/><circle fill="#FFAD76" cx="76.586" cy="575.872" r="3.653"/><path fill="#C17B4C" d="M40.471 628.429a3.989 3.989 0 0 1-.867-5.573l13.228-18.101a3.989 3.989 0 0 1 6.44 4.706l-13.228 18.101a3.989 3.989 0 0 1-5.573.867z"/><path fill="#FFAD76" d="M66.593 654.008a3.988 3.988 0 0 1-3.988-3.988V627.6a3.988 3.988 0 0 1 7.976 0v22.419a3.988 3.988 0 0 1-3.988 3.989zM21.468 609.646a3.988 3.988 0 0 1 5.573-.867l18.101 13.228a3.988 3.988 0 0 1-4.706 6.44l-18.101-13.228a3.987 3.987 0 0 1-.867-5.573zM94.868 599.806a3.569 3.569 0 0 0-5.003.665l-3.506 5.295L72.01 595.37a4.408 4.408 0 0 0-5.172 7.138l16.749 12.134a4.392 4.392 0 0 0 3.292.78 3.546 3.546 0 0 0 2.537-1.375l.057-.087c.089-.102.188-.19.269-.302.183-.252.333-.518.455-.792l5.337-8.06a3.567 3.567 0 0 0-.666-5z"/><path fill="#FFF" d="M82.777 654.682a5.783 5.783 0 0 0-5.782-5.783l-14.405-.02v5.774c0 .01-.003.019-.003.029h20.19zM57.697 629.747l17.036-25.303a9.374 9.374 0 0 0-2.288-13.058 9.374 9.374 0 0 0-13.058 2.288l-17.156 24.465M11.615 622.689a5.783 5.783 0 0 0 8.045-1.468l8.208-11.837-4.75-3.283-.022-.019-11.481 16.607z"/><path fill="#FFAD76" d="M67.79 593.712L48.279 582.67a3.945 3.945 0 0 0-1.858-.498c-.109-.009-.217-.006-.326-.006-.043.002-.086.001-.128.005a3.542 3.542 0 0 0-2.623 1.314l-.046.049-.016.017-.059.089a3.97 3.97 0 0 0-.379.536c-.02.035-.029.073-.048.109l-5.632 8.506a3.569 3.569 0 0 0 5.668 4.338l4.035-6.093 16.995 9.618a3.988 3.988 0 1 0 3.928-6.942z"/><path fill="#444" d="M47.955 609.676l20.678 14.164-6.587 9.616-20.678-14.163z"/><path fill="#2D2D2D" d="M47.938 609.755l-6.549 9.563 9.219 6.314c-4.92-3.747-6.131-10.705-2.606-15.874l-.064-.003z"/><ellipse fill="#FFF" cx="368.391" cy="635.469" rx="7.661" ry="7.392"/><ellipse fill="#FFF" cx="386.798" cy="647.678" rx="4.319" ry="4.168"/><path fill="#FFF" d="M414.019 576.928c-2.703-8.595-10.976-14.853-20.766-14.853-10.12 0-18.622 6.685-21.023 15.729a17.596 17.596 0 0 0-5.524-.887c-9.425 0-17.066 7.373-17.066 16.468 0 3.17.93 6.129 2.539 8.642-1.963 2.063-3.171 4.805-3.171 7.826 0 6.4 5.377 11.589 12.009 11.589 5.596 0 10.285-3.699 11.618-8.698 2.2.756 4.608 1.176 7.134 1.176 5.727 0 10.851-2.146 14.291-5.524a19.553 19.553 0 0 0 11.203 3.491c10.589 0 19.173-8.283 19.173-18.501-.001-7.174-4.233-13.388-10.417-16.458z"/><path fill="#6D0000" d="M525.219 591.526c-2.387.404-4.801.662-7.256.7a1.902 1.902 0 0 1-.509 1.444c-4.109 4.406-9.496 5.982-15.17 5.916-.365.05-.73.116-1.094.156-.229.094-.454.189-.692.282-.519.204-.987.112-1.381-.121a48.503 48.503 0 0 1-6.088-.03c-3.359.195-6.572-.127-9.422-1.269l-.24-.043a1.728 1.728 0 0 1-.89-.464c-2.398-1.198-4.497-3.048-6.129-5.797-.048-.081-.07-.159-.098-.237a102.8 102.8 0 0 1-7.906-.767 76.143 76.143 0 0 1-5.186 3.559c-2.317 2.206-4.916 4.078-7.701 5.673-.157.131-.312.264-.47.394 7.011 16.439 23.305 27.969 42.305 27.969 18.667 0 34.67-11.151 41.869-27.132-4.987-2.958-9.602-6.391-13.942-10.233z"/><path fill="#9B0000" d="M453.079 605.079c0-12.597 10.212-22.809 22.809-22.809 12.597 0 22.809 10.212 22.809 22.809"/><path fill="#9B0000" d="M495.58 605.079c0-12.597 10.212-22.809 22.809-22.809s22.809 10.212 22.809 22.809"/><path fill="#BC2F2F" d="M576.565 588.857c0-15.996 12.967-28.962 28.962-28.962s28.962 12.967 28.962 28.962v15.155c0 15.996-12.967 28.962-28.962 28.962s-28.962-12.967-28.962-28.962v-15.155z"/><path fill="#FFAC8F" d="M618.154 586.687c-5.362-.284-10.506.485-15.833 1.008-5.092.5-10.301.986-15.314.293a24.68 24.68 0 0 0-1.765 9.148v27.223c0 13.686 11.094 24.78 24.78 24.78s24.78-11.095 24.78-24.78v-27.223c0-3.589-.779-6.991-2.152-10.071-4.856.719-9.336-.105-14.496-.378z"/><path fill="#FFF" d="M595.424 617.483c0 5.394-4.373 9.766-9.766 9.766-5.394 0-9.766-4.373-9.766-9.766 0-5.394 4.373-9.766 9.766-9.766a9.766 9.766 0 0 1 9.766 9.766z"/><path fill="#FFF" d="M585.242 607.956v16.404c0 13.686 11.095 24.78 24.78 24.78s24.78-11.095 24.78-24.78v-16.404h-49.56z"/><path fill="#E2E2E2" d="M610.298 617.194l18.99 22.735a24.662 24.662 0 0 0 5.514-15.569v-16.404h-24.025l-.479 1.805-.479-1.805h-24.578v16.404a24.674 24.674 0 0 0 5.787 15.904l19.27-23.07z"/><path fill="#FFAC8F" d="M618.159 607.38a8.02 8.02 0 1 1-16.042 0v-13.276a8.02 8.02 0 1 1 16.042 0v13.276z"/><path opacity=".5" fill="#8C4D3A" d="M593.134 601.621a4.479 4.479 0 1 1 8.958 0M619.403 601.621a4.479 4.479 0 1 1 8.958 0"/><path fill="#FFF" d="M584.776 583.836h50.259v9.852h-50.259z"/><path fill="#9B0000" d="M725.264 569.028h-19.302c-16.319 0-29.671 13.352-29.671 29.671s13.352 29.671 29.671 29.671h19.302c16.319 0 29.671-13.352 29.671-29.671 0-16.32-13.352-29.671-29.671-29.671z"/><path fill="#FFBC00" d="M704.354 628.369h23.026v6.482h-23.026zM704.11 562.092h23.006v6.935H704.11zM708.102 647.426a1.064 1.064 0 0 1-1.061-1.061v-9.176c0-.584.478-1.061 1.061-1.061.584 0 1.061.478 1.061 1.061v9.176c0 .583-.478 1.061-1.061 1.061zM715.613 647.426a1.064 1.064 0 0 1-1.061-1.061v-9.176c0-.584.478-1.061 1.061-1.061.584 0 1.061.478 1.061 1.061v9.176c0 .583-.478 1.061-1.061 1.061zM711.941 647.426a1.064 1.064 0 0 1-1.061-1.061v-9.176c0-.584.478-1.061 1.061-1.061.584 0 1.061.478 1.061 1.061v9.176a1.064 1.064 0 0 1-1.061 1.061zM719.513 647.426a1.064 1.064 0 0 1-1.061-1.061v-9.176c0-.584.478-1.061 1.061-1.061.584 0 1.061.478 1.061 1.061v9.176a1.064 1.064 0 0 1-1.061 1.061zM723.705 647.426a1.064 1.064 0 0 1-1.061-1.061v-9.176c0-.584.478-1.061 1.061-1.061.584 0 1.061.478 1.061 1.061v9.176c0 .583-.478 1.061-1.061 1.061z"/><ellipse fill="none" stroke="#FFBC00" stroke-width="2.44" stroke-miterlimit="10" cx="715.927" cy="598.69" rx="27.021" ry="31.847"/><path fill="#FFF" d="M708.102 562.092h5.893v6.935h-5.893zM708.102 628.465h5.893v6.364h-5.893z"/></svg>